<?xml version="1.0" standalone="no"?>
<!DOCTYPE svg PUBLIC "-//W3C//DTD SVG 1.1//EN"
  "http://www.w3.org/Graphics/SVG/1.1/DTD/svg11.dtd">
<svg width="200mm" height="200mm" viewBox="-100 -100 200 200" xmlns="http://www.w3.org/2000/svg" version="1.1">
<g stroke="orange" stroke-width="0.5" fill="none">
<path d="M 73.85203,-37.57688 L 73.69553,-37.76674 L 73.53851,-37.95599 L 73.38098,-38.14462 L 73.22295,-38.33263 L 73.06441,-38.52001 L 72.90536,-38.70677 L 72.74582,-38.89291 L 72.58578,-39.07842 L 72.42524,-39.26330 L 72.26421,-39.44755 L 72.10268,-39.63118 L 71.94067,-39.81417 L 71.77817,-39.99652 L 71.61519,-40.17825 L 71.45173,-40.35933 L 71.28778,-40.53978 L 71.12336,-40.71959 L 70.95847,-40.89876 L 70.79310,-41.07729 L 70.62727,-41.25518 L 70.46096,-41.43243 L 70.29419,-41.60903 L 70.12696,-41.78498 L 69.95927,-41.96029 L 69.79112,-42.13494 L 69.62252,-42.30895 L 69.45347,-42.48231 L 69.28396,-42.65502 L 69.11401,-42.82707 L 68.94361,-42.99847 L 68.77276,-43.16921 L 68.60148,-43.33930 L 68.42976,-43.50872 L 68.25761,-43.67749 L 68.08502,-43.84560 L 67.91200,-44.01305 L 67.73855,-44.17984 L 67.56468,-44.34596 L 67.39038,-44.51142 L 67.21566,-44.67621 L 67.04053,-44.84033 L 66.86498,-45.00379 L 66.68901,-45.16658 L 66.51264,-45.32870 L 66.33585,-45.49015 L 66.15866,-45.65092 L 65.98107,-45.81103 L 65.80308,-45.97046 L 65.62469,-46.12921 L 65.44590,-46.28729 L 65.26672,-46.44469 L 65.08714,-46.60142 L 64.90718,-46.75746 L 64.72684,-46.91283 L 64.54611,-47.06751 L 64.36500,-47.22151 L 64.18351,-47.37483 L 64.00165,-47.52747 L 63.81941,-47.67942 L 63.63680,-47.83069 L 63.45382,-47.98127 L 63.27048,-48.13117 L 63.08678,-48.28037 L 62.90271,-48.42889 L 62.71829,-48.57672 L 62.53351,-48.72385 L 62.34838,-48.87030 L 62.16289,-49.01605 L 61.97706,-49.16111 L 61.79089,-49.30548 L 61.60437,-49.44915 L 61.41751,-49.59213 L 61.23031,-49.73441 L 61.04278,-49.87599 L 60.85491,-50.01688 L 60.66672,-50.15707 L 60.47819,-50.29655 L 60.28934,-50.43534 L 60.10017,-50.57343 L 59.91068,-50.71081 L 59.72088,-50.84750 L 59.53075,-50.98348 L 59.34032,-51.11876 L 59.14957,-51.25333 L 58.95852,-51.38720 L 58.76716,-51.52036 L 58.57551,-51.65282 L 58.38355,-51.78457 L 58.19129,-51.91561 L 57.99874,-52.04595 L 57.80590,-52.17557 L 57.61277,-52.30449 L 57.41936,-52.43270 L 57.22566,-52.56020 L 57.03167,-52.68698 L 56.83741,-52.81306 L 56.64287,-52.93842 L 56.44806,-53.06307 L 56.25298,-53.18700 L 56.05763,-53.31022 L 55.86201,-53.43273 L 55.66613,-53.55453 L 55.46999,-53.67560 L 55.27359,-53.79597 L 55.07694,-53.91561 L 54.88003,-54.03454 L 54.68287,-54.15275 L 54.48546,-54.27025 L 54.28781,-54.38702 L 54.08992,-54.50308 L 53.89178,-54.61842 L 53.69341,-54.73303 L 53.49480,-54.84693 L 53.29596,-54.96011 L 53.09689,-55.07257 L 52.89759,-55.18431 L 52.69807,-55.29532 L 52.49832,-55.40562 L 52.29836,-55.51519 L 52.09818,-55.62404 L 51.89778,-55.73216 L 51.69718,-55.83957 L 51.49636,-55.94625 L 51.29534,-56.05220 L 51.09411,-56.15743 L 50.89268,-56.26194 L 50.69105,-56.36572 L 50.48923,-56.46878 L 50.28721,-56.57111 L 50.08500,-56.67272 L 49.88261,-56.77360 L 49.68002,-56.87376 L 49.47726,-56.97319 L 49.27431,-57.07189 L 49.07118,-57.16987 L 48.86788,-57.26712 L 48.66441,-57.36364 L 48.46076,-57.45943 L 48.25695,-57.55450 L 48.05297,-57.64884 L 47.84883,-57.74245 L 47.64453,-57.83534 L 47.44007,-57.92750 L 47.23546,-58.01893 L 47.03069,-58.10963 L 46.82578,-58.19960 L 46.62071,-58.28884 L 46.41551,-58.37736 L 46.21016,-58.46514 L 46.00467,-58.55220 L 45.79904,-58.63853 L 45.59328,-58.72413 L 45.38739,-58.80900 L 45.18136,-58.89315 L 44.97522,-58.97656 L 44.76894,-59.05924 L 44.56255,-59.14120 L 44.35603,-59.22243 L 44.14940,-59.30292 L 43.94266,-59.38269 L 43.73581,-59.46173 L 43.52884,-59.54004 L 43.32177,-59.61763 L 43.11460,-59.69448 L 42.90732,-59.77060 L 42.69995,-59.84600 L 42.49248,-59.92067 L 42.28492,-59.99461 L 42.07726,-60.06782 L 41.86952,-60.14030 L 41.66169,-60.21205 L 41.45378,-60.28308 L 41.24579,-60.35338 L 41.03772,-60.42295 L 40.82957,-60.49179 L 40.62135,-60.55990 L 40.41306,-60.62729 L 40.20471,-60.69395 L 39.99628,-60.75989 L 39.78780,-60.82509 L 39.57925,-60.88957 L 39.37065,-60.95333 L 39.16199,-61.01635 L 38.95328,-61.07866 L 38.74451,-61.14023 L 38.53570,-61.20108 L 38.32685,-61.26121 L 38.11795,-61.32061 L 37.90901,-61.37928 L 37.70003,-61.43723 L 37.49102,-61.49446 L 37.28198,-61.55097 L 37.07290,-61.60675 L 36.86380,-61.66180 L 36.65467,-61.71614 L 36.44552,-61.76975 L 36.23635,-61.82264 L 36.02716,-61.87480 L 35.81796,-61.92625 L 35.60874,-61.97697 L 35.39951,-62.02698 L 35.19028,-62.07626 L 34.98104,-62.12483 L 34.77180,-62.17267 L 34.56256,-62.21979 L 34.35332,-62.26620 L 34.14408,-62.31189 L 33.93485,-62.35686 L 33.72563,-62.40111 L 33.51642,-62.44465 L 33.30723,-62.48746 L 33.09806,-62.52957 L 32.88890,-62.57095 L 32.67976,-62.61163 L 32.47065,-62.65158 L 32.26157,-62.69083 L 32.05252,-62.72936 L 31.84349,-62.76717 L 31.63450,-62.80428 L 31.42555,-62.84067 L 31.21664,-62.87635 L 31.00777,-62.91132 L 30.79894,-62.94558 L 30.59016,-62.97913 L 30.38142,-63.01197 L 30.17274,-63.04410 L 29.96411,-63.07552 L 29.75554,-63.10624 L 29.54703,-63.13625 L 29.33857,-63.16555 L 29.13018,-63.19415 L 28.92186,-63.22204 L 28.71360,-63.24923 L 28.50541,-63.27571 L 28.29730,-63.30149 L 28.08926,-63.32657 L 27.88130,-63.35095 L 27.67342,-63.37463 L 27.46562,-63.39760 L 27.25790,-63.41988 L 27.05028,-63.44146 L 26.84274,-63.46234 L 26.63529,-63.48252 L 26.42794,-63.50200 L 26.22068,-63.52079 L 26.01352,-63.53888 L 25.80647,-63.55628 L 25.59951,-63.57299 L 25.39267,-63.58900 L 25.18593,-63.60432 L 24.97930,-63.61895 L 24.77278,-63.63289 L 24.56638,-63.64614 L 24.36010,-63.65869 L 24.15393,-63.67056 L 23.94789,-63.68175 L 23.74197,-63.69225 L 23.53618,-63.70206 L 23.33052,-63.71118 L 23.12499,-63.71963 L 22.91959,-63.72738 L 22.71433,-63.73446 L 22.50921,-63.74086 L 22.30422,-63.74657 L 22.09938,-63.75161 L 21.89469,-63.75596 L 21.69014,-63.75964 L 21.48574,-63.76264 L 21.28149,-63.76497 L 21.07740,-63.76662 L 20.87346,-63.76760 L 20.66968,-63.76790 L 20.46607,-63.76753 L 20.26261,-63.76649 L 20.05932,-63.76478 L 19.85620,-63.76240 L 19.65325,-63.75935 L 19.45047,-63.75564 L 19.24786,-63.75126 L 19.04543,-63.74621 L 18.84318,-63.74050 L 18.64111,-63.73412 L 18.43922,-63.72709 L 18.23751,-63.71939 L 18.03600,-63.71103 L 17.83467,-63.70201 L 17.63354,-63.69234 L 17.43260,-63.68200 L 17.23185,-63.67101 L 17.03130,-63.65937 L 16.83096,-63.64707 L 16.63081,-63.63412 L 16.43087,-63.62052 L 16.23114,-63.60627 L 16.03161,-63.59137 L 15.83230,-63.57582 L 15.63320,-63.55962 L 15.43431,-63.54278 L 15.23565,-63.52529 L 15.03720,-63.50716 L 14.83897,-63.48838 L 14.64097,-63.46897 L 14.44319,-63.44891 L 14.24564,-63.42822 L 14.04832,-63.40688 L 13.85124,-63.38491 L 13.65438,-63.36231 L 13.45777,-63.33907 L 13.26139,-63.31520 L 13.06525,-63.29069 L 12.86936,-63.26556 L 12.67370,-63.23979 L 12.47830,-63.21340 L 12.28314,-63.18638 L 12.08824,-63.15873 L 11.89358,-63.13046 L 11.69919,-63.10157 L 11.50504,-63.07206 L 11.31116,-63.04192 L 11.11754,-63.01117 L 10.92418,-62.97979 L 10.73108,-62.94780 L 10.53826,-62.91520 L 10.34570,-62.88198 L 10.15341,-62.84814 L 9.96139,-62.81370 L 9.76965,-62.77865 L 9.57819,-62.74298 L 9.38700,-62.70671 L 9.19609,-62.66984 L 9.00547,-62.63235 L 8.81513,-62.59427 L 8.62508,-62.55558 L 8.43531,-62.51629 L 8.24584,-62.47641 L 8.05666,-62.43592 L 7.86777,-62.39484 L 7.67918,-62.35316 L 7.49088,-62.31089 L 7.30289,-62.26803 L 7.11519,-62.22457 L 6.92780,-62.18053 L 6.74072,-62.13590 L 6.55394,-62.09068 L 6.36747,-62.04488 L 6.18132,-61.99849 L 5.99547,-61.95152 L 5.80994,-61.90397 L 5.62473,-61.85584 L 5.43984,-61.80713 L 5.25526,-61.75784 L 5.07101,-61.70798 L 4.88708,-61.65755 L 4.70348,-61.60655 L 4.52020,-61.55497 L 4.33726,-61.50282 L 4.15464,-61.45011 L 3.97236,-61.39683 L 3.79041,-61.34299 L 3.60880,-61.28858 L 3.42753,-61.23362 L 3.24660,-61.17809 L 3.06601,-61.12200 L 2.88576,-61.06536 L 2.70586,-61.00816 L 2.52630,-60.95041 L 2.34710,-60.89211 L 2.16824,-60.83325 L 1.98974,-60.77385 L 1.81159,-60.71390 L 1.63379,-60.65340 L 1.45635,-60.59236 L 1.27927,-60.53078 L 1.10256,-60.46865 L 0.92620,-60.40599 L 0.75021,-60.34279 L 0.57458,-60.27905 L 0.39933,-60.21477 L 0.22444,-60.14997 L 0.04992,-60.08463 L -0.12423,-60.01876 L -0.29800,-59.95237 L -0.47140,-59.88545 L -0.64442,-59.81800 L -0.81706,-59.75003 L -0.98932,-59.68154 L -1.16120,-59.61253 L -1.33269,-59.54300 L -1.50380,-59.47296 L -1.67453,-59.40240 L -1.84486,-59.33132 L -2.01481,-59.25974 L -2.18436,-59.18764 L -2.35352,-59.11504 L -2.52229,-59.04193 L -2.69066,-58.96832 L -2.85863,-58.89421 L -3.02620,-58.81959 L -3.19337,-58.74447 L -3.36014,-58.66886 L -3.52651,-58.59275 L -3.69247,-58.51614 L -3.85802,-58.43905 L -4.02317,-58.36146 L -4.18790,-58.28338 L -4.35223,-58.20482 L -4.51614,-58.12577 L -4.67964,-58.04624 L -4.84272,-57.96623 L -5.00539,-57.88573 L -5.16763,-57.80476 L -5.32946,-57.72331 L -5.49087,-57.64138 L -5.65185,-57.55899 L -5.81241,-57.47612 L -5.97254,-57.39278 L -6.13225,-57.30897 L -6.29153,-57.22470 L -6.45038,-57.13997 L -6.60879,-57.05477 L -6.76678,-56.96911 L -6.92433,-56.88300 L -7.08144,-56.79642 L -7.23812,-56.70940 L -7.39436,-56.62191 L -7.55017,-56.53398 L -7.70553,-56.44560 L -7.86045,-56.35677 L -8.01492,-56.26750 L -8.16895,-56.17778 L -8.32254,-56.08762 L -8.47568,-55.99702 L -8.62837,-55.90598 L -8.78061,-55.81450 L -8.93240,-55.72259 L -9.08374,-55.63025 L -9.23462,-55.53748 L -9.38505,-55.44428 L -9.53503,-55.35065 L -9.68454,-55.25660 L -9.83360,-55.16212 L -9.98220,-55.06722 L -10.13034,-54.97191 L -10.27801,-54.87617 L -10.42523,-54.78002 L -10.57197,-54.68346 L -10.71826,-54.58648 L -10.86407,-54.48910 L -11.00942,-54.39130 L -11.15430,-54.29310 L -11.29871,-54.19450 L -11.44264,-54.09550 L -11.58611,-53.99609 L -11.72910,-53.89629 L -11.87162,-53.79609 L -12.01366,-53.69549 L -12.15522,-53.59451 L -12.29631,-53.49313 L -12.43691,-53.39137 L -12.57704,-53.28922 L -12.71668,-53.18668 L -12.85584,-53.08376 L -12.99452,-52.98046 L -13.13272,-52.87678 L -13.27042,-52.77273 L -13.40765,-52.66830 L -13.54438,-52.56350 L -13.68063,-52.45833 L -13.81638,-52.35279 L -13.95165,-52.24688 L -14.08642,-52.14061 L -14.22070,-52.03397 L -14.35449,-51.92697 L -14.48778,-51.81962 L -14.62057,-51.71191 L -14.75287,-51.60384 L -14.88468,-51.49542 L -15.01598,-51.38665 L -15.14678,-51.27753 L -15.27709,-51.16807 L -15.40689,-51.05826 L -15.53619,-50.94810 L -15.66499,-50.83761 L -15.79328,-50.72678 L -15.92107,-50.61561 L -16.04835,-50.50411 L -16.17513,-50.39227 L -16.30139,-50.28010 L -16.42715,-50.16761 L -16.55240,-50.05479 L -16.67714,-49.94164 L -16.80137,-49.82817 L -16.92509,-49.71438 L -17.04829,-49.60027 L -17.17098,-49.48585 L -17.29316,-49.37111 L -17.41482,-49.25606 L -17.53596,-49.14070 L -17.65659,-49.02504 L -17.77670,-48.90906 L -17.91626,-48.82817 L -18.05548,-48.74685 L -18.19436,-48.66513 L -18.33290,-48.58298 L -18.47110,-48.50042 L -18.60896,-48.41746 L -18.74648,-48.33408 L -18.88365,-48.25029 L -19.02048,-48.16609 L -19.15696,-48.08149 L -19.29309,-47.99648 L -19.42887,-47.91106 L -19.56430,-47.82525 L -19.69938,-47.73903 L -19.83411,-47.65241 L -19.96848,-47.56540 L -20.10249,-47.47798 L -20.23615,-47.39017 L -20.36945,-47.30197 L -20.50240,-47.21338 L -20.63498,-47.12439 L -20.76720,-47.03501 L -20.89905,-46.94525 L -21.03054,-46.85509 L -21.16167,-46.76455 L -21.29243,-46.67363 L -21.42283,-46.58232 L -21.55285,-46.49064 L -21.68250,-46.39857 L -21.81179,-46.30612 L -21.94070,-46.21330 L -22.06924,-46.12010 L -22.19740,-46.02652 L -22.32519,-45.93258 L -22.45260,-45.83826 L -22.57963,-45.74357 L -22.70628,-45.64851 L -22.83256,-45.55309 L -22.95845,-45.45730 L -23.08396,-45.36114 L -23.20909,-45.26462 L -23.33383,-45.16775 L -23.45819,-45.07051 L -23.58216,-44.97291 L -23.70574,-44.87496 L -23.82893,-44.77665 L -23.95174,-44.67799 L -24.07415,-44.57898 L -24.19617,-44.47961 L -24.31780,-44.37990 L -24.43903,-44.27983 L -24.55987,-44.17943 L -24.68031,-44.07867 L -24.80036,-43.97758 L -24.92000,-43.87614 L -25.03925,-43.77436 L -25.15810,-43.67224 L -25.27655,-43.56979 L -25.39459,-43.46700 L -25.51223,-43.36388 L -25.62947,-43.26042 L -25.74630,-43.15663 L -25.86273,-43.05252 L -25.97875,-42.94807 L -26.09436,-42.84330 L -26.20956,-42.73820 L -26.32435,-42.63278 L -26.43873,-42.52704 L -26.55270,-42.42098 L -26.66626,-42.31460 L -26.77940,-42.20791 L -26.89213,-42.10089 L -27.00444,-41.99357 L -27.11634,-41.88593 L -27.22782,-41.77798 L -27.33888,-41.66972 L -27.44952,-41.56116 L -27.55975,-41.45228 L -27.66955,-41.34311 L -27.77893,-41.23363 L -27.88788,-41.12385 L -27.99642,-41.01377 L -28.10453,-40.90339 L -28.21221,-40.79272 L -28.31947,-40.68175 L -28.42630,-40.57048 L -28.53270,-40.45893 L -28.63868,-40.34708 L -28.74422,-40.23495 L -28.84934,-40.12253 L -28.95402,-40.00983 L -29.05828,-39.89684 L -29.16210,-39.78357 L -29.26548,-39.67002 L -29.36844,-39.55619 L -29.47096,-39.44208 L -29.57304,-39.32770 L -29.67468,-39.21304 L -29.77589,-39.09811 L -29.87666,-38.98291 L -29.97700,-38.86745 L -30.07689,-38.75171 L -30.17634,-38.63571 L -30.27535,-38.51945 L -30.37392,-38.40292 L -30.47205,-38.28613 L -30.56973,-38.16908 L -30.66697,-38.05178 L -30.76377,-37.93422 L -30.86012,-37.81640 L -30.95603,-37.69834 L -31.05148,-37.58002 L -31.14650,-37.46145 L -31.24106,-37.34264 L -31.33517,-37.22358 L -31.42884,-37.10427 L -31.52206,-36.98473 L -31.61482,-36.86494 L -31.70713,-36.74491 L -31.79900,-36.62465 L -31.89041,-36.50415 L -31.98136,-36.38341 L -32.07187,-36.26244 L -32.16191,-36.14125 L -32.25151,-36.01982 L -32.34065,-35.89817 L -32.42933,-35.77629 L -32.51755,-35.65418 L -32.60532,-35.53185 L -32.69263,-35.40931 L -32.77948,-35.28654 L -32.86588,-35.16356 L -32.95181,-35.04036 L -33.03728,-34.91695 L -33.12230,-34.79332 L -33.20685,-34.66949 L -33.29094,-34.54544 L -33.37456,-34.42119 L -33.45773,-34.29673 L -33.54043,-34.17207 L -33.62267,-34.04721 L -33.70444,-33.92215 L -33.78575,-33.79688 L -33.86659,-33.67143 L -33.94697,-33.54577 L -34.02688,-33.41992 L -34.10633,-33.29389 L -34.18531,-33.16766 L -34.26382,-33.04124 L -34.34186,-32.91463 L -34.41943,-32.78785 L -34.49654,-32.66087 L -34.57317,-32.53372 L -34.64934,-32.40639 L -34.72503,-32.27887 L -34.80025,-32.15119 L -34.87501,-32.02332 L -34.94929,-31.89529 L -35.02310,-31.76708 L -35.09644,-31.63871 L -35.16930,-31.51016 L -35.24169,-31.38145 L -35.31361,-31.25258 L -35.38506,-31.12354 L -35.45603,-30.99435 L -35.52652,-30.86499 L -35.59655,-30.73547 L -35.66609,-30.60581 L -35.73516,-30.47598 L -35.80376,-30.34601 L -35.87188,-30.21588 L -35.93952,-30.08561 L -36.00668,-29.95518 L -36.07337,-29.82462 L -36.13958,-29.69391 L -36.20532,-29.56305 L -36.27057,-29.43206 L -36.33535,-29.30093 L -36.39965,-29.16966 L -36.46346,-29.03826 L -36.52681,-28.90673 L -36.58967,-28.77506 L -36.65205,-28.64326 L -36.71395,-28.51134 L -36.77537,-28.37929 L -36.83631,-28.24712 L -36.89677,-28.11482 L -36.95675,-27.98240 L -37.01625,-27.84986 L -37.07527,-27.71721 L -37.13381,-27.58444 L -37.19186,-27.45155 L -37.24944,-27.31856 L -37.30653,-27.18545 L -37.36314,-27.05223 L -37.41926,-26.91891 L -37.47491,-26.78548 L -37.53007,-26.65195 L -37.58475,-26.51832 L -37.63895,-26.38458 L -37.69266,-26.25075 L -37.74589,-26.11682 L -37.79864,-25.98280 L -37.85090,-25.84868 L -37.90268,-25.71447 L -37.95398,-25.58018 L -38.00479,-25.44579 L -38.05512,-25.31132 L -38.10496,-25.17676 L -38.15432,-25.04213 L -38.20320,-24.90741 L -38.25159,-24.77261 L -38.29950,-24.63773 L -38.34693,-24.50278 L -38.39387,-24.36775 L -38.44032,-24.23265 L -38.48629,-24.09749 L -38.53178,-23.96225 L -38.57678,-23.82694 L -38.62130,-23.69157 L -38.66533,-23.55614 L -38.70888,-23.42065 L -38.75195,-23.28509 L -38.79453,-23.14948 L -38.83662,-23.01381 L -38.87823,-22.87808 L -38.91936,-22.74230 L -38.96000,-22.60647 L -39.00016,-22.47060 L -39.03983,-22.33467 L -39.07902,-22.19869 L -39.11772,-22.06268 L -39.15594,-21.92662 L -39.19368,-21.79051 L -39.23093,-21.65437 L -39.26770,-21.51819 L -39.30398,-21.38198 L -39.33978,-21.24573 L -39.37510,-21.10945 L -39.40993,-20.97314 L -39.44428,-20.83680 L -39.47814,-20.70043 L -39.51152,-20.56404 L -39.54442,-20.42762 L -39.57684,-20.29118 L -39.60877,-20.15472 L -39.64022,-20.01824 L -39.67119,-19.88175 L -39.70167,-19.74524 L -39.73168,-19.60871 L -39.76120,-19.47218 L -39.79023,-19.33563 L -39.81879,-19.19908 L -39.84686,-19.06251 L -39.87446,-18.92595 L -39.90157,-18.78938 L -39.92820,-18.65281 L -39.95435,-18.51624 L -39.98002,-18.37967 L -40.00521,-18.24311 L -40.02992,-18.10655 L -40.05414,-17.96999 L -40.07789,-17.83345 L -40.10116,-17.69691 L -40.12395,-17.56039 L -40.14626,-17.42389 L -40.16810,-17.28739 L -40.18945,-17.15092 L -40.21033,-17.01446 L -40.23072,-16.87803 L -40.25064,-16.74161 L -40.27009,-16.60522 L -40.28905,-16.46886 L -40.30754,-16.33252 L -40.32555,-16.19621 L -40.34309,-16.05994 L -40.36015,-15.92369 L -40.37673,-15.78748 L -40.39284,-15.65130 L -40.40848,-15.51517 L -40.42364,-15.37907 L -40.43832,-15.24301 L -40.45254,-15.10699 L -40.46628,-14.97102 L -40.47954,-14.83509 L -40.49234,-14.69922 L -40.50466,-14.56339 L -40.51651,-14.42761 L -40.52788,-14.29188 L -40.53879,-14.15621 L -40.54923,-14.02059 L -40.55919,-13.88503 L -40.56869,-13.74953 L -40.57771,-13.61409 L -40.58627,-13.47871 L -40.59436,-13.34340 L -40.60198,-13.20815 L -40.60913,-13.07297 L -40.61581,-12.93785 L -40.62203,-12.80281 L -40.62778,-12.66784 L -40.63307,-12.53294 L -40.63789,-12.39812 L -40.64224,-12.26338 L -40.64613,-12.12871 L -40.64956,-11.99413 L -40.65252,-11.85962 L -40.65502,-11.72520 L -40.65706,-11.59087 L -40.65863,-11.45662 L -40.65975,-11.32246 L -40.66040,-11.18839 L -40.66059,-11.05441 L -40.66032,-10.92053 L -40.65959,-10.78674 L -40.65841,-10.65304 L -40.65676,-10.51945 L -40.65466,-10.38595 L -40.65210,-10.25255 L -40.64908,-10.11926 L -40.64561,-9.98607 L -40.64168,-9.85299 L -40.63730,-9.72002 L -40.63246,-9.58715 L -40.62717,-9.45440 L -40.62142,-9.32175 L -40.61522,-9.18922 L -40.60858,-9.05681 L -40.60147,-8.92451 L -40.59392,-8.79233 L -40.58592,-8.66028 L -40.57747,-8.52834 L -40.56857,-8.39653 L -40.55922,-8.26484 L -40.54942,-8.13328 L -40.53918,-8.00184 L -40.52849,-7.87054 L -40.51736,-7.73937 L -40.50578,-7.60832 L -40.49375,-7.47742 L -40.48128,-7.34665 L -40.46837,-7.21601 L -40.45502,-7.08552 L -40.44123,-6.95516 L -40.42699,-6.82495 L -40.41231,-6.69488 L -40.39720,-6.56495 L -40.38165,-6.43517 L -40.36565,-6.30554 L -40.34922,-6.17606 L -40.33236,-6.04673 L -40.31506,-5.91755 L -40.29732,-5.78852 L -40.27915,-5.65966 L -40.26054,-5.53094 L -40.24151,-5.40239 L -40.22204,-5.27399 L -40.20213,-5.14576 L -40.18180,-5.01769 L -40.16104,-4.88979 L -40.13985,-4.76205 L -40.11823,-4.63447 L -40.09619,-4.50707 L -40.07371,-4.37983 L -40.05081,-4.25277 L -40.02749,-4.12588 L -40.00374,-3.99917 L -39.97957,-3.87263 L -39.95498,-3.74627 L -39.92996,-3.62009 L -39.90452,-3.49409 L -39.87867,-3.36827 L -39.85239,-3.24263 L -39.82570,-3.11718 L -39.79858,-2.99191 L -39.77105,-2.86684 L -39.74311,-2.74195 L -39.71475,-2.61725 L -39.68598,-2.49274 L -39.65679,-2.36843 L -39.62719,-2.24431 L -39.59718,-2.12039 L -39.56676,-1.99667 L -39.53592,-1.87314 L -39.50468,-1.74982 L -39.47304,-1.62669 L -39.44098,-1.50377 L -39.40852,-1.38106 L -39.37565,-1.25855 L -39.34238,-1.13624 L -39.30871,-1.01415 L -39.27463,-0.89227 L -39.24015,-0.77059 L -39.20527,-0.64913 L -39.17000,-0.52789 L -39.13432,-0.40686 L -39.09824,-0.28605 L -39.06177,-0.16545 L -39.02491,-0.04508 L -38.98764,0.07508 L -38.94999,0.19501 L -38.91194,0.31472 L -38.87350,0.43420 L -38.83467,0.55346 L -38.79545,0.67249 L -38.75584,0.79129 L -38.71584,0.90986 L -38.67545,1.02820 L -38.63468,1.14630 L -38.59353,1.26418 L -38.55199,1.38181 L -38.51006,1.49921 L -38.46776,1.61637 L -38.42507,1.73329 L -38.38201,1.84998 L -38.33857,1.96642 L -38.29475,2.08261 L -38.25055,2.19856 L -38.20597,2.31427 L -38.16103,2.42973 L -38.11570,2.54494 L -38.07001,2.65990 L -38.02395,2.77461 L -37.97751,2.88907 L -37.93071,3.00327 L -37.88353,3.11722 L -37.83599,3.23092 L -37.78809,3.34435 L -37.73982,3.45753 L -37.69118,3.57045 L -37.64219,3.68311 L -37.59283,3.79551 L -37.54311,3.90764 L -37.49303,4.01951 L -37.44260,4.13111 L -37.39180,4.24245 L -37.34065,4.35352 L -37.28915,4.46432 L -37.23729,4.57485 L -37.18508,4.68510 L -37.13252,4.79509 L -37.07961,4.90480 L -37.02635,5.01424 L -36.97274,5.12339 L -36.91878,5.23228 L -36.86448,5.34088 L -36.80984,5.44920 L -36.75485,5.55725 L -36.69952,5.66501 L -36.64385,5.77248 L -36.58783,5.87968 L -36.53148,5.98659 L -36.47480,6.09321 L -36.41777,6.19954 L -36.36042,6.30559 L -36.30272,6.41134 L -36.24470,6.51680 L -36.18634,6.62197 L -36.12766,6.72685 L -36.06864,6.83144 L -36.00930,6.93573 L -35.94963,7.03972 L -35.88963,7.14341 L -35.82931,7.24681 L -35.76867,7.34990 L -35.70771,7.45270 L -35.64643,7.55519 L -35.58482,7.65738 L -35.52290,7.75927 L -35.46067,7.86085 L -35.39812,7.96212 L -35.33525,8.06309 L -35.27207,8.16375 L -35.20858,8.26410 L -35.14478,8.36414 L -35.08067,8.46387 L -35.01625,8.56328 L -34.95153,8.66239 L -34.88650,8.76117 L -34.82117,8.85965 L -34.75553,8.95780 L -34.68959,9.05564 L -34.62336,9.15317 L -34.55682,9.25037 L -34.48999,9.34725 L -34.42286,9.44381 L -34.35544,9.54005 L -34.28772,9.63596 L -34.21971,9.73155 L -34.15141,9.82682 L -34.08282,9.92176 L -34.01394,10.01637 L -33.94478,10.11065 L -33.87533,10.20461 L -33.80559,10.29824 L -33.73557,10.39153 L -33.66528,10.48449 L -33.59470,10.57712 L -33.52384,10.66942 L -33.45270,10.76138 L -33.46920,10.88454 L -33.48523,11.00792 L -33.50078,11.13153 L -33.51587,11.25537 L -33.53048,11.37943 L -33.54461,11.50372 L -33.55827,11.62823 L -33.57145,11.75296 L -33.58416,11.87791 L -33.59638,12.00307 L -33.60812,12.12845 L -33.61938,12.25404 L -33.63015,12.37984 L -33.64044,12.50584 L -33.65024,12.63206 L -33.65955,12.75848 L -33.66837,12.88510 L -33.67671,13.01192 L -33.68455,13.13894 L -33.69189,13.26616 L -33.69875,13.39357 L -33.70510,13.52118 L -33.71096,13.64897 L -33.71633,13.77696 L -33.72119,13.90513 L -33.72555,14.03348 L -33.72941,14.16202 L -33.73277,14.29074 L -33.73562,14.41964 L -33.73797,14.54871 L -33.73981,14.67796 L -33.74115,14.80739 L -33.74197,14.93698 L -33.74229,15.06674 L -33.74209,15.19667 L -33.74139,15.32676 L -33.74017,15.45701 L -33.73843,15.58743 L -33.73618,15.71800 L -33.73342,15.84873 L -33.73013,15.97961 L -33.72633,16.11064 L -33.72201,16.24183 L -33.71717,16.37316 L -33.71180,16.50464 L -33.70591,16.63626 L -33.69950,16.76802 L -33.69257,16.89992 L -33.68511,17.03196 L -33.67712,17.16413 L -33.66860,17.29644 L -33.65956,17.42888 L -33.64998,17.56144 L -33.63988,17.69413 L -33.62924,17.82695 L -33.61807,17.95989 L -33.60637,18.09294 L -33.59413,18.22612 L -33.58136,18.35941 L -33.56805,18.49281 L -33.55421,18.62633 L -33.53982,18.75995 L -33.52490,18.89368 L -33.50944,19.02752 L -33.49343,19.16146 L -33.47689,19.29549 L -33.45980,19.42963 L -33.44217,19.56386 L -33.42400,19.69819 L -33.40528,19.83260 L -33.38601,19.96711 L -33.36620,20.10170 L -33.34585,20.23637 L -33.32494,20.37113 L -33.30349,20.50597 L -33.28148,20.64088 L -33.25893,20.77587 L -33.23582,20.91094 L -33.21216,21.04607 L -33.18795,21.18128 L -33.16319,21.31654 L -33.13788,21.45188 L -33.11200,21.58727 L -33.08558,21.72273 L -33.05860,21.85824 L -33.03106,21.99381 L -33.00296,22.12943 L -32.97431,22.26509 L -32.94510,22.40081 L -32.91533,22.53657 L -32.88500,22.67238 L -32.85410,22.80823 L -32.82265,22.94411 L -32.79064,23.08004 L -32.75806,23.21599 L -32.72493,23.35198 L -32.69122,23.48800 L -32.65696,23.62404 L -32.62213,23.76011 L -32.58674,23.89620 L -32.55078,24.03231 L -32.51425,24.16844 L -32.47716,24.30458 L -32.43950,24.44073 L -32.40128,24.57690 L -32.36248,24.71308 L -32.32312,24.84926 L -32.28319,24.98544 L -32.24269,25.12162 L -32.20162,25.25781 L -32.15999,25.39399 L -32.11778,25.53016 L -32.07500,25.66632 L -32.03165,25.80248 L -31.98772,25.93862 L -31.94323,26.07474 L -31.89816,26.21085 L -31.85252,26.34693 L -31.80631,26.48299 L -31.75953,26.61903 L -31.71217,26.75504 L -31.66424,26.89102 L -31.61573,27.02697 L -31.56665,27.16288 L -31.51699,27.29875 L -31.46676,27.43459 L -31.41596,27.57038 L -31.36458,27.70613 L -31.31262,27.84183 L -31.26009,27.97748 L -31.20698,28.11307 L -31.15329,28.24862 L -31.09903,28.38411 L -31.04419,28.51953 L -30.98877,28.65490 L -30.93278,28.79020 L -30.87621,28.92544 L -30.81906,29.06060 L -30.76134,29.19570 L -30.70304,29.33072 L -30.64416,29.46566 L -30.58470,29.60053 L -30.52466,29.73531 L -30.46405,29.87002 L -30.40286,30.00463 L -30.34109,30.13916 L -30.27874,30.27359 L -30.21581,30.40793 L -30.15231,30.54218 L -30.08822,30.67632 L -30.02356,30.81037 L -29.95832,30.94431 L -29.89250,31.07815 L -29.82611,31.21188 L -29.75913,31.34550 L -29.69158,31.47900 L -29.62345,31.61239 L -29.55474,31.74566 L -29.48545,31.87881 L -29.41559,32.01183 L -29.34515,32.14474 L -29.27413,32.27751 L -29.20253,32.41015 L -29.13035,32.54266 L -29.05760,32.67504 L -28.98427,32.80727 L -28.91037,32.93937 L -28.83588,33.07132 L -28.76082,33.20313 L -28.68519,33.33479 L -28.60897,33.46630 L -28.53219,33.59765 L -28.45482,33.72886 L -28.37688,33.85990 L -28.29837,33.99078 L -28.21928,34.12150 L -28.13961,34.25206 L -28.05937,34.38245 L -27.97856,34.51267 L -27.89717,34.64271 L -27.81521,34.77258 L -27.73267,34.90228 L -27.64956,35.03179 L -27.56588,35.16112 L -27.48163,35.29027 L -27.39681,35.41923 L -27.31141,35.54800 L -27.22544,35.67657 L -27.13890,35.80496 L -27.05179,35.93314 L -26.96411,36.06113 L -26.87587,36.18891 L -26.78705,36.31649 L -26.69766,36.44386 L -26.60771,36.57102 L -26.51719,36.69797 L -26.42610,36.82471 L -26.33444,36.95122 L -26.24222,37.07752 L -26.14943,37.20360 L -26.05607,37.32945 L -25.96215,37.45508 L -25.86767,37.58048 L -25.77263,37.70564 L -25.67702,37.83057 L -25.58084,37.95527 L -25.48411,38.07973 L -25.38681,38.20394 L -25.28896,38.32791 L -25.19054,38.45164 L -25.09156,38.57511 L -24.99203,38.69834 L -24.89193,38.82131 L -24.79128,38.94402 L -24.69008,39.06648 L -24.58831,39.18867 L -24.48599,39.31060 L -24.38312,39.43227 L -24.27969,39.55367 L -24.17570,39.67479 L -24.07117,39.79565 L -23.96608,39.91623 L -23.86044,40.03653 L -23.75425,40.15655 L -23.64751,40.27629 L -23.54023,40.39574 L -23.43239,40.51490 L -23.32401,40.63378 L -23.21508,40.75236 L -23.10560,40.87065 L -22.99558,40.98864 L -22.88501,41.10633 L -22.77391,41.22372 L -22.66226,41.34080 L -22.55006,41.45758 L -22.43733,41.57405 L -22.32406,41.69020 L -22.21025,41.80605 L -22.09590,41.92157 L -21.98101,42.03678 L -21.86559,42.15167 L -21.74963,42.26623 L -21.63314,42.38047 L -21.51612,42.49438 L -21.39856,42.60796 L -21.28047,42.72121 L -21.16185,42.83412 L -21.04271,42.94669 L -20.92303,43.05892 L -20.80283,43.17082 L -20.68210,43.28236 L -20.56084,43.39356 L -20.43906,43.50441 L -20.31676,43.61491 L -20.19394,43.72506 L -20.07060,43.83484 L -19.94673,43.94427 L -19.82235,44.05334 L -19.69745,44.16205 L -19.57203,44.27039 L -19.44610,44.37836 L -19.31965,44.48597 L -19.19269,44.59320 L -19.06522,44.70005 L -18.93724,44.80653 L -18.80875,44.91263 L -18.67975,45.01835 L -18.55025,45.12368 L -18.42023,45.22863 L -18.28972,45.33319 L -18.15870,45.43735 L -18.02717,45.54113 L -17.89515,45.64451 L -17.76263,45.74749 L -17.62961,45.85008 L -17.49609,45.95226 L -17.36208,46.05404 L -17.22757,46.15541 L -17.09257,46.25637 L -16.95707,46.35692 L -16.82109,46.45706 L -16.68462,46.55678 L -16.54766,46.65609 L -16.41021,46.75497 L -16.27228,46.85344 L -16.13386,46.95148 L -15.99496,47.04909 L -15.85558,47.14628 L -15.71572,47.24303 L -15.57539,47.33935 L -15.43457,47.43524 L -15.29329,47.53069 L -15.15152,47.62570 L -15.00929,47.72027 L -14.86658,47.81439 L -14.72341,47.90807 L -14.57977,48.00130 L -14.43566,48.09408 L -14.29108,48.18641 L -14.14605,48.27829 L -14.00055,48.36971 L -13.85459,48.46067 L -13.70817,48.55116 L -13.56129,48.64120 L -13.41396,48.73077 L -13.26618,48.81988 L -13.11794,48.90851 L -12.96925,48.99668 L -12.82011,49.08437 L -12.67052,49.17159 L -12.52049,49.25832 L -12.37002,49.34458 L -12.21910,49.43036 L -12.06774,49.51566 L -11.91594,49.60046 L -11.76370,49.68479 L -11.61102,49.76862 L -11.45791,49.85196 L -11.30437,49.93481 L -11.15040,50.01716 L -10.99600,50.09901 L -10.84117,50.18036 L -10.68591,50.26122 L -10.53023,50.34157 L -10.37412,50.42141 L -10.21760,50.50075 L -10.06066,50.57957 L -9.90330,50.65789 L -9.74552,50.73569 L -9.58733,50.81297 L -9.42873,50.88974 L -9.26971,50.96599 L -9.11029,51.04172 L -8.95047,51.11693 L -8.79023,51.19161 L -8.62960,51.26576 L -8.46856,51.33939 L -8.30713,51.41248 L -8.14529,51.48504 L -7.98307,51.55707 L -7.82044,51.62856 L -7.65743,51.69952 L -7.49403,51.76993 L -7.33023,51.83980 L -7.16606,51.90913 L -7.00149,51.97791 L -6.83655,52.04615 L -6.67123,52.11383 L -6.50552,52.18097 L -6.33944,52.24755 L -6.17299,52.31358 L -6.00616,52.37905 L -5.83897,52.44396 L -5.67140,52.50831 L -5.50347,52.57211 L -5.33518,52.63533 L -5.16652,52.69800 L -4.99750,52.76009 L -4.82812,52.82162 L -4.65838,52.88258 L -4.48830,52.94296 L -4.31785,53.00277 L -4.14706,53.06201 L -3.97592,53.12067 L -3.80444,53.17875 L -3.63261,53.23625 L -3.46043,53.29316 L -3.28792,53.34949 L -3.11507,53.40524 L -2.94188,53.46040 L -2.76836,53.51497 L -2.59451,53.56895 L -2.42033,53.62234 L -2.24582,53.67513 L -2.07099,53.72733 L -1.89583,53.77893 L -1.72036,53.82994 L -1.54456,53.88034 L -1.36845,53.93014 L -1.19202,53.97934 L -1.01528,54.02793 L -0.83823,54.07592 L -0.66087,54.12330 L -0.48321,54.17007 L -0.30524,54.21622 L -0.12698,54.26177 L 0.05159,54.30670 L 0.23045,54.35101 L 0.40961,54.39471 L 0.58906,54.43779 L 0.76880,54.48025 L 0.94883,54.52209 L 1.12914,54.56331 L 1.30974,54.60390 L 1.49062,54.64386 L 1.67177,54.68320 L 1.85321,54.72191 L 2.03491,54.75999 L 2.21689,54.79743 L 2.39914,54.83425 L 2.58165,54.87043 L 2.76443,54.90597 L 2.94748,54.94088 L 3.13078,54.97515 L 3.31434,55.00878 L 3.49815,55.04176 L 3.68222,55.07411 L 3.86654,55.10581 L 4.05111,55.13687 L 4.23593,55.16728 L 4.42098,55.19704 L 4.60628,55.22615 L 4.79182,55.25461 L 4.97759,55.28242 L 5.16360,55.30958 L 5.34984,55.33609 L 5.53631,55.36193 L 5.72301,55.38713 L 5.90993,55.41166 L 6.09707,55.43553 L 6.28443,55.45875 L 6.47201,55.48130 L 6.65980,55.50319 L 6.84781,55.52442 L 7.03602,55.54498 L 7.22445,55.56488 L 7.41307,55.58411 L 7.60190,55.60267 L 7.79093,55.62056 L 7.98016,55.63778 L 8.16958,55.65432 L 8.35920,55.67020 L 8.54900,55.68540 L 8.73899,55.69992 L 8.92917,55.71377 L 9.11952,55.72695 L 9.31006,55.73944 L 9.50078,55.75126 L 9.69167,55.76239 L 9.88273,55.77284 L 10.07396,55.78262 L 10.26536,55.79170 L 10.45693,55.80011 L 10.64865,55.80782 L 10.84054,55.81486 L 11.03258,55.82120 L 11.22477,55.82686 L 11.41712,55.83182 L 11.60962,55.83610 L 11.80226,55.83968 L 11.99505,55.84258 L 12.18798,55.84478 L 12.38105,55.84629 L 12.57425,55.84710 L 12.76759,55.84721 L 12.96106,55.84664 L 13.15465,55.84536 L 13.34838,55.84338 L 13.54222,55.84071 L 13.73619,55.83734 L 13.93027,55.83326 L 14.12447,55.82849 L 14.31878,55.82301 L 14.51320,55.81683 L 14.70773,55.80994 L 14.90237,55.80236 L 15.09710,55.79406 L 15.29194,55.78506 L 15.48687,55.77536 L 15.68189,55.76494 L 15.87701,55.75382 L 16.07222,55.74199 L 16.26751,55.72945 L 16.46288,55.71620 L 16.65834,55.70224 L 16.85387,55.68757 L 17.04948,55.67218 L 17.24516,55.65608 L 17.44091,55.63927 L 17.63673,55.62175 L 17.83261,55.60351 L 18.02855,55.58455 L 18.22456,55.56488 L 18.42061,55.54450 L 18.61673,55.52339 L 18.81289,55.50157 L 19.00910,55.47903 L 19.20536,55.45578 L 19.40166,55.43180 L 19.59800,55.40710 L 19.79438,55.38169 L 19.99079,55.35555 L 20.18723,55.32869 L 20.38370,55.30111 L 20.58020,55.27281 L 20.77672,55.24379 L 20.97327,55.21404 L 21.16983,55.18357 L 21.36640,55.15238 L 21.56299,55.12046 L 21.76457,55.09530 L 21.96621,55.06939 L 22.16792,55.04272 L 22.36970,55.01531 L 22.57153,54.98714 L 22.77342,54.95822 L 22.97537,54.92855 L 23.17736,54.89812 L 23.37941,54.86694 L 23.58150,54.83501 L 23.78363,54.80232 L 23.98581,54.76887 L 24.18802,54.73467 L 24.39027,54.69971 L 24.59254,54.66399 L 24.79485,54.62752 L 24.99718,54.59028 L 25.19954,54.55229 L 25.40192,54.51354 L 25.60431,54.47402 L 25.80672,54.43375 L 26.00914,54.39271 L 26.21156,54.35091 L 26.41400,54.30835 L 26.61644,54.26503 L 26.81887,54.22094 L 27.02131,54.17609 L 27.22374,54.13048 L 27.42616,54.08410 L 27.62856,54.03696 L 27.83096,53.98905 L 28.03334,53.94038 L 28.23569,53.89094 L 28.43803,53.84073 L 28.64034,53.78976 L 28.84262,53.73802 L 29.04486,53.68551 L 29.24708,53.63224 L 29.44925,53.57819 L 29.65139,53.52338 L 29.85348,53.46780 L 30.05553,53.41145 L 30.25752,53.35434 L 30.45947,53.29645 L 30.66136,53.23780 L 30.86319,53.17837 L 31.06496,53.11817 L 31.26667,53.05721 L 31.46831,52.99547 L 31.66988,52.93297 L 31.87138,52.86969 L 32.07280,52.80564 L 32.27414,52.74082 L 32.47540,52.67523 L 32.67658,52.60887 L 32.87767,52.54174 L 33.07868,52.47383 L 33.27958,52.40516 L 33.48039,52.33571 L 33.68111,52.26549 L 33.88172,52.19450 L 34.08222,52.12274 L 34.28262,52.05020 L 34.48291,51.97690 L 34.68308,51.90282 L 34.88314,51.82797 L 35.08308,51.75235 L 35.28289,51.67595 L 35.48258,51.59879 L 35.68214,51.52085 L 35.88157,51.44214 L 36.08086,51.36266 L 36.28002,51.28241 L 36.47903,51.20138 L 36.67791,51.11959 L 36.87663,51.03702 L 37.07521,50.95368 L 37.27364,50.86958 L 37.47191,50.78470 L 37.67002,50.69904 L 37.86797,50.61262 L 38.06576,50.52543 L 38.26338,50.43747 L 38.46083,50.34874 L 38.65810,50.25923 L 38.85520,50.16896 L 39.05213,50.07792 L 39.24887,49.98611 L 39.44542,49.89353 L 39.64179,49.80018 L 39.83797,49.70607 L 40.03395,49.61118 L 40.22974,49.51553 L 40.42532,49.41911 L 40.62071,49.32193 L 40.81589,49.22397 L 41.01086,49.12525 L 41.20562,49.02577 L 41.40016,48.92551 L 41.59449,48.82450 L 41.78859,48.72271 L 41.98248,48.62017 L 42.17613,48.51685 L 42.36956,48.41278 L 42.56275,48.30794 L 42.75571,48.20234 L 42.94844,48.09598 L 43.14092,47.98885 L 43.33315,47.88096 L 43.52514,47.77231 L 43.71688,47.66290 L 43.90837,47.55274 L 44.09960,47.44181 L 44.29057,47.33012 L 44.48128,47.21767 L 44.67173,47.10447 L 44.86191,46.99051 L 45.05181,46.87579 L 45.24145,46.76031 L 45.43080,46.64408 L 45.61988,46.52710 L 45.80868,46.40936 L 45.99718,46.29087 L 46.18541,46.17162 L 46.37334,46.05162 L 46.56097,45.93087 L 46.74831,45.80937 L 46.93535,45.68712 L 47.12208,45.56412 L 47.30851,45.44037 L 47.49463,45.31587 L 47.68044,45.19062 L 47.86594,45.06463 L 48.05111,44.93789 L 48.23597,44.81041 L 48.42050,44.68218 L 48.60470,44.55321 L 48.78858,44.42349 L 48.97212,44.29304 L 49.15533,44.16184 L 49.33820,44.02990 L 49.52073,43.89722 L 49.70292,43.76380 L 49.88476,43.62965 L 50.06624,43.49476 L 50.24738,43.35913 L 50.42816,43.22276 L 50.60858,43.08567 L 50.78864,42.94783 L 50.96834,42.80927 L 51.14767,42.66998 L 51.32663,42.52995 L 51.50521,42.38920 L 51.68342,42.24771 L 51.86126,42.10550 L 52.03871,41.96256 L 52.21577,41.81890 L 52.39245,41.67451 L 52.56874,41.52940 L 52.74463,41.38356 L 52.92013,41.23701 L 53.09523,41.08973 L 53.26993,40.94174 L 53.44422,40.79302 L 53.61811,40.64359 L 53.79159,40.49345 L 53.96465,40.34259 L 54.13730,40.19101 L 54.30952,40.03872 L 54.48133,39.88572 L 54.65271,39.73201 L 54.82367,39.57759 L 54.99419,39.42247 L 55.16428,39.26663 L 55.33394,39.11009 L 55.50316,38.95285 L 55.67193,38.79490 L 55.84027,38.63625 L 56.00815,38.47690 L 56.17559,38.31686 L 56.34257,38.15611 L 56.50910,37.99466 L 56.67517,37.83253 L 56.84077,37.66969 L 57.00592,37.50617 L 57.17059,37.34195 L 57.33480,37.17704 L 57.49854,37.01144 L 57.66180,36.84516 L 57.82458,36.67819 L 57.98689,36.51053 L 58.14871,36.34219 L 58.31004,36.17317 L 58.47089,36.00347 L 58.63124,35.83309 L 58.79110,35.66203 L 58.95046,35.49030 L 59.10932,35.31789 L 59.26768,35.14480 L 59.42554,34.97105 L 59.58289,34.79662 L 59.73972,34.62153 L 59.89605,34.44577 L 60.05186,34.26934 L 60.20715,34.09225 L 60.36191,33.91449 L 60.51616,33.73608 L 60.66987,33.55700 L 60.82306,33.37727 L 60.97572,33.19688 L 61.12784,33.01583 L 61.27942,32.83413 L 61.43046,32.65178 L 61.58096,32.46878 L 61.73092,32.28513 L 61.88033,32.10083 L 62.02918,31.91589 L 62.17748,31.73030 L 62.32523,31.54408 L 62.47242,31.35721 L 62.61905,31.16970 L 62.76511,30.98156 L 62.91061,30.79278 L 63.05553,30.60337 L 63.19989,30.41333 L 63.34367,30.22265 L 63.48687,30.03135 L 63.62950,29.83942 L 63.77154,29.64687 L 63.91300,29.45370 L 64.05387,29.25990 L 64.19415,29.06548 L 64.33384,28.87045 L 64.47294,28.67480 L 64.61143,28.47854 L 64.74933,28.28166 L 64.88662,28.08418 L 65.02331,27.88609 L 65.15939,27.68739 L 65.29486,27.48808 L 65.42972,27.28818 L 65.56397,27.08767 L 65.69759,26.88656 L 65.83060,26.68486 L 65.96298,26.48256 L 66.09474,26.27967 L 66.22587,26.07619 L 66.35637,25.87212 L 66.48624,25.66746 L 66.61547,25.46222 L 66.74407,25.25640 L 66.87203,25.04999 L 66.99934,24.84300 L 67.12601,24.63544 L 67.25203,24.42730 L 67.37741,24.21859 L 67.50213,24.00931 L 67.62619,23.79946 L 67.74960,23.58904 L 67.87235,23.37806 L 67.99444,23.16651 L 68.11587,22.95441 L 68.23662,22.74174 L 68.35671,22.52852 L 68.47613,22.31475 L 68.59488,22.10042 L 68.71295,21.88554 L 68.83034,21.67012 L 68.94705,21.45415 L 69.06308,21.23764 L 69.17842,21.02058 L 69.29308,20.80299 L 69.40705,20.58486 L 69.52032,20.36619 L 69.63290,20.14699 L 69.74479,19.92726 L 69.85597,19.70701 L 69.96646,19.48623 L 70.07624,19.26492 L 70.18531,19.04309 L 70.29368,18.82075 L 70.40134,18.59789 L 70.50828,18.37451 L 70.61451,18.15062 L 70.72003,17.92622 L 70.82482,17.70132 L 70.92890,17.47591 L 71.03225,17.24999 L 71.13487,17.02358 L 71.23677,16.79667 L 71.33794,16.56926 L 71.43837,16.34136 L 71.53807,16.11296 L 71.63704,15.88408 L 71.73527,15.65472 L 71.83275,15.42486 L 71.92950,15.19453 L 72.02549,14.96372 L 72.12075,14.73243 L 72.21525,14.50067 L 72.30900,14.26844 L 72.40200,14.03573 L 72.49424,13.80256 L 72.58573,13.56893 L 72.67645,13.33483 L 72.76642,13.10028 L 72.85562,12.86527 L 72.94406,12.62980 L 73.03173,12.39388 L 73.11862,12.15752 L 73.20475,11.92070 L 73.29011,11.68345 L 73.37468,11.44575 L 73.45848,11.20761 L 73.54151,10.96903 L 73.62375,10.73002 L 73.70520,10.49058 L 73.78587,10.25072 L 73.86576,10.01042 L 73.94485,9.76970 L 74.02315,9.52856 L 74.10066,9.28700 L 74.17738,9.04503 L 74.25330,8.80264 L 74.32842,8.55985 L 74.40273,8.31664 L 74.47625,8.07303 L 74.54896,7.82902 L 74.62087,7.58461 L 74.69196,7.33980 L 74.76225,7.09460 L 74.83173,6.84900 L 74.90039,6.60302 L 74.96824,6.35665 L 75.03527,6.10989 L 75.10148,5.86276 L 75.16687,5.61524 L 75.23143,5.36736 L 75.29518,5.11910 L 75.35809,4.87046 L 75.42018,4.62147 L 75.48144,4.37211 L 75.54187,4.12238 L 75.60147,3.87230 L 75.66023,3.62186 L 75.71815,3.37107 L 75.77524,3.11993 L 75.83148,2.86844 L 75.88689,2.61661 L 75.94145,2.36443 L 75.99517,2.11192 L 76.04804,1.85907 L 76.10006,1.60588 L 76.15124,1.35237 L 76.20156,1.09853 L 76.25103,0.84436 L 76.29964,0.58987 L 76.34740,0.33506 L 76.39430,0.07994 L 76.44035,-0.17550 L 76.48553,-0.43124 L 76.52985,-0.68730 L 76.57330,-0.94366 L 76.61590,-1.20032 L 76.65762,-1.45728 L 76.69847,-1.71453 L 76.73846,-1.97208 L 76.77758,-2.22991 L 76.81582,-2.48804 L 76.85318,-2.74644 L 76.88968,-3.00513 L 76.92529,-3.26410 L 76.96003,-3.52334 L 76.99388,-3.78285 L 77.02686,-4.04263 L 77.05895,-4.30268 L 77.09016,-4.56299 L 77.12048,-4.82356 L 77.14992,-5.08439 L 77.17847,-5.34547 L 77.20612,-5.60680 L 77.23289,-5.86838 L 77.25877,-6.13020 L 77.28375,-6.39227 L 77.30783,-6.65457 L 77.33102,-6.91711 L 77.35332,-7.17988 L 77.37471,-7.44289 L 77.39520,-7.70611 L 77.41480,-7.96956 L 77.43349,-8.23323 L 77.45127,-8.49712 L 77.46815,-8.76122 L 77.48413,-9.02554 L 77.49920,-9.29006 L 77.51335,-9.55478 L 77.52660,-9.81971 L 77.53894,-10.08483 L 77.55037,-10.35015 L 77.56088,-10.61566 L 77.57048,-10.88136 L 77.57916,-11.14725 L 77.58693,-11.41332 L 77.59378,-11.67957 L 77.59971,-11.94599 L 77.60471,-12.21259 L 77.60880,-12.47936 L 77.61197,-12.74629 L 77.61421,-13.01339 L 77.61553,-13.28065 L 77.61593,-13.54806 L 77.61539,-13.81563 L 77.61393,-14.08335 L 77.61155,-14.35122 L 77.60823,-14.61923 L 77.60398,-14.88738 L 77.59880,-15.15567 L 77.59269,-15.42410 L 77.58565,-15.69265 L 77.57767,-15.96134 L 77.56876,-16.23014 L 77.55891,-16.49908 L 77.54813,-16.76812 L 77.53640,-17.03729 L 77.52374,-17.30657 L 77.51014,-17.57595 L 77.49560,-17.84544 L 77.48012,-18.11503 L 77.46370,-18.38472 L 77.44633,-18.65451 L 77.42802,-18.92439 L 77.40877,-19.19435 L 77.38857,-19.46441 L 77.36742,-19.73454 L 77.34533,-20.00476 L 77.32229,-20.27505 L 77.29831,-20.54541 L 77.27337,-20.81584 L 77.24748,-21.08634 L 77.22065,-21.35690 L 77.19286,-21.62751 L 77.16413,-21.89819 L 77.13444,-22.16891 L 77.10379,-22.43969 L 77.07220,-22.71051 L 77.03965,-22.98137 L 77.00614,-23.25228 L 76.97168,-23.52321 L 76.93626,-23.79418 L 76.89989,-24.06518 L 76.86256,-24.33621 L 76.82427,-24.60726 L 76.78502,-24.87832 L 76.74482,-25.14940 L 76.70365,-25.42050 L 76.66153,-25.69160 L 76.61844,-25.96271 L 76.57439,-26.23382 L 76.52939,-26.50492 L 76.48342,-26.77603 L 76.43649,-27.04712 L 76.38859,-27.31820 L 76.33973,-27.58927 L 76.28991,-27.86032 L 76.23913,-28.13135 L 76.18738,-28.40235 L 76.13466,-28.67333 L 76.08098,-28.94427 L 76.02634,-29.21517 L 75.97073,-29.48604 L 75.91415,-29.75687 L 75.85661,-30.02765 L 75.79810,-30.29837 L 75.73862,-30.56905 L 75.67817,-30.83967 L 75.61676,-31.11023 L 75.55438,-31.38073 L 75.49103,-31.65116 L 75.42672,-31.92153 L 75.36143,-32.19182 L 75.29517,-32.46203 L 75.22795,-32.73216 L 75.15976,-33.00221 L 75.09059,-33.27217 L 75.02046,-33.54204 L 74.94936,-33.81182 L 74.87729,-34.08150 L 74.80424,-34.35107 L 74.73023,-34.62055 L 74.65525,-34.88991 L 74.57929,-35.15917 L 74.50237,-35.42831 L 74.42447,-35.69733 L 74.34561,-35.96623 L 74.26577,-36.23500 L 74.18497,-36.50365 L 74.10319,-36.77216 L 74.02044,-37.04054 L 73.93672,-37.30878 L 73.85203,-37.57688 "/>
<circle cx="0.00000" cy="0.00000" r="1" fill="red"/>
<line x1="0.00000" y1="0.00000" x2="10.00000" y2="0.00000" stroke="blue" stroke-width="0.5"/>
<line x1="0.00000" y1="0.00000" x2="0.00000" y2="-10.00000" stroke="blue" stroke-width="0.5"/>
</g>
</svg>
