<?xml version="1.0" standalone="no"?>
<!DOCTYPE svg PUBLIC "-//W3C//DTD SVG 1.1//EN"
  "http://www.w3.org/Graphics/SVG/1.1/DTD/svg11.dtd">
<svg width="200mm" height="200mm" viewBox="-100 -100 200 200" xmlns="http://www.w3.org/2000/svg" version="1.1">
<g stroke="orange" stroke-width="0.5" fill="none">
<path d="M -48.90906,-17.77670 L -49.37111,-17.29316 L -49.82817,-16.80137 L -50.28010,-16.30139 L -50.72678,-15.79328 L -51.16807,-15.27709 L -51.60384,-14.75287 L -52.03397,-14.22070 L -52.45833,-13.68063 L -52.87678,-13.13272 L -53.28922,-12.57704 L -53.69549,-12.01366 L -54.09550,-11.44264 L -54.48910,-10.86407 L -54.87617,-10.27801 L -55.25660,-9.68454 L -55.63025,-9.08374 L -55.99702,-8.47568 L -56.35677,-7.86045 L -56.70940,-7.23812 L -57.05477,-6.60879 L -57.39278,-5.97254 L -57.72331,-5.32946 L -58.04624,-4.67964 L -58.36146,-4.02317 L -58.66886,-3.36014 L -58.96832,-2.69066 L -59.25974,-2.01481 L -59.54300,-1.33269 L -59.81800,-0.64442 L -60.08463,0.04992 L -60.34279,0.75021 L -60.59236,1.45635 L -60.83325,2.16824 L -61.06536,2.88576 L -61.28858,3.60880 L -61.50282,4.33726 L -61.70798,5.07101 L -61.90397,5.80994 L -62.09068,6.55394 L -62.26803,7.30289 L -62.43592,8.05666 L -62.59427,8.81513 L -62.74298,9.57819 L -62.88198,10.34570 L -63.01117,11.11754 L -63.13046,11.89358 L -63.23979,12.67370 L -63.33907,13.45777 L -63.42822,14.24564 L -63.50716,15.03720 L -63.57582,15.83230 L -63.63412,16.63081 L -63.68200,17.43260 L -63.71939,18.23751 L -63.74621,19.04543 L -63.76240,19.85620 L -63.76790,20.66968 L -63.76264,21.48574 L -63.74657,22.30422 L -63.71963,23.12499 L -63.68175,23.94789 L -63.63289,24.77278 L -63.57299,25.59951 L -63.50200,26.42794 L -63.41988,27.25790 L -63.32657,28.08926 L -63.22204,28.92186 L -63.10624,29.75554 L -62.97913,30.59016 L -62.84067,31.42555 L -62.69083,32.26157 L -62.52957,33.09806 L -62.35686,33.93485 L -62.17267,34.77180 L -61.97697,35.60874 L -61.76975,36.44552 L -61.55097,37.28198 L -61.32061,38.11795 L -61.07866,38.95328 L -60.82509,39.78780 L -60.55990,40.62135 L -60.28308,41.45378 L -59.99461,42.28492 L -59.69448,43.11460 L -59.38269,43.94266 L -59.05924,44.76894 L -58.72413,45.59328 L -58.37736,46.41551 L -58.01893,47.23546 L -57.64884,48.05297 L -57.26712,48.86788 L -56.87376,49.68002 L -56.46878,50.48923 L -56.05220,51.29534 L -55.62404,52.09818 L -55.18431,52.89759 L -54.73303,53.69341 L -54.27025,54.48546 L -53.79597,55.27359 L -53.31022,56.05763 L -52.81306,56.83741 L -52.30449,57.61277 L -51.78457,58.38355 L -51.25333,59.14957 L -50.71081,59.91068 L -50.15707,60.66672 L -49.59213,61.41751 L -49.01605,62.16289 L -48.42889,62.90271 L -47.83069,63.63680 L -47.22151,64.36500 L -46.60142,65.08714 L -45.97046,65.80308 L -45.32870,66.51264 L -44.67621,67.21566 L -44.01305,67.91200 L -43.33930,68.60148 L -42.65502,69.28396 L -41.96029,69.95927 L -41.25518,70.62727 L -40.53978,71.28778 L -39.81417,71.94067 L -39.07842,72.58578 L -38.33263,73.22295 L -37.57688,73.85203 L -36.50365,74.18497 L -35.42831,74.50237 L -34.35107,74.80424 L -33.27217,75.09059 L -32.19182,75.36143 L -31.11023,75.61676 L -30.02765,75.85661 L -28.94427,76.08098 L -27.86032,76.28991 L -26.77603,76.48342 L -25.69160,76.66153 L -24.60726,76.82427 L -23.52321,76.97168 L -22.43969,77.10379 L -21.35690,77.22065 L -20.27505,77.32229 L -19.19435,77.40877 L -18.11503,77.48012 L -17.03729,77.53640 L -15.96134,77.57767 L -14.88738,77.60398 L -13.81563,77.61539 L -12.74629,77.61197 L -11.67957,77.59378 L -10.61566,77.56088 L -9.55478,77.51335 L -8.49712,77.45127 L -7.44289,77.37471 L -6.39227,77.28375 L -5.34547,77.17847 L -4.30268,77.05895 L -3.26410,76.92529 L -2.22991,76.77758 L -1.20032,76.61590 L -0.17550,76.44035 L 0.84436,76.25103 L 1.85907,76.04804 L 2.86844,75.83148 L 3.87230,75.60147 L 4.87046,75.35809 L 5.86276,75.10148 L 6.84900,74.83173 L 7.82902,74.54896 L 8.80264,74.25330 L 9.76970,73.94485 L 10.73002,73.62375 L 11.68345,73.29011 L 12.62980,72.94406 L 13.56893,72.58573 L 14.50067,72.21525 L 15.42486,71.83275 L 16.34136,71.43837 L 17.24999,71.03225 L 18.15062,70.61451 L 19.04309,70.18531 L 19.92726,69.74479 L 20.80299,69.29308 L 21.67012,68.83034 L 22.52852,68.35671 L 23.37806,67.87235 L 24.21859,67.37741 L 25.04999,66.87203 L 25.87212,66.35637 L 26.68486,65.83060 L 27.48808,65.29486 L 28.28166,64.74933 L 29.06548,64.19415 L 29.83942,63.62950 L 30.60337,63.05553 L 31.35721,62.47242 L 32.10083,61.88033 L 32.83413,61.27942 L 33.55700,60.66987 L 34.26934,60.05186 L 34.97105,59.42554 L 35.66203,58.79110 L 36.34219,58.14871 L 37.01144,57.49854 L 37.66969,56.84077 L 38.31686,56.17559 L 38.95285,55.50316 L 39.57759,54.82367 L 40.19101,54.13730 L 40.79302,53.44422 L 41.38356,52.74463 L 41.96256,52.03871 L 42.52995,51.32663 L 43.08567,50.60858 L 43.62965,49.88476 L 44.16184,49.15533 L 44.68218,48.42050 L 45.19062,47.68044 L 45.68712,46.93535 L 46.17162,46.18541 L 46.64408,45.43080 L 47.10447,44.67173 L 47.55274,43.90837 L 47.98885,43.14092 L 48.41278,42.36956 L 48.82450,41.59449 L 49.22397,40.81589 L 49.61118,40.03395 L 49.98611,39.24887 L 50.34874,38.46083 L 50.69904,37.67002 L 51.03702,36.87663 L 51.36266,36.08086 L 51.67595,35.28289 L 51.97690,34.48291 L 52.26549,33.68111 L 52.54174,32.87767 L 52.80564,32.07280 L 53.05721,31.26667 L 53.29645,30.45947 L 53.52338,29.65139 L 53.73802,28.84262 L 53.94038,28.03334 L 54.13048,27.22374 L 54.30835,26.41400 L 54.47402,25.60431 L 54.62752,24.79485 L 54.76887,23.98581 L 54.89812,23.17736 L 55.01531,22.36970 L 55.12046,21.56299 L 55.24379,20.77672 L 55.35555,19.99079 L 55.45578,19.20536 L 55.54450,18.42061 L 55.62175,17.63673 L 55.68757,16.85387 L 55.74199,16.07222 L 55.78506,15.29194 L 55.81683,14.51320 L 55.83734,13.73619 L 55.84664,12.96106 L 55.84478,12.18798 L 55.83182,11.41712 L 55.80782,10.64865 L 55.77284,9.88273 L 55.72695,9.11952 L 55.67020,8.35920 L 55.60267,7.60190 L 55.52442,6.84781 L 55.43553,6.09707 L 55.33609,5.34984 L 55.22615,4.60628 L 55.10581,3.86654 L 54.97515,3.13078 L 54.83425,2.39914 L 54.68320,1.67177 L 54.52209,0.94883 L 54.35101,0.23045 L 54.17007,-0.48321 L 53.97934,-1.19202 L 53.77893,-1.89583 L 53.56895,-2.59451 L 53.34949,-3.28792 L 53.12067,-3.97592 L 52.88258,-4.65838 L 52.63533,-5.33518 L 52.37905,-6.00616 L 52.11383,-6.67123 L 51.83980,-7.33023 L 51.55707,-7.98307 L 51.26576,-8.62960 L 50.96599,-9.26971 L 50.65789,-9.90330 L 50.34157,-10.53023 L 50.01716,-11.15040 L 49.68479,-11.76370 L 49.34458,-12.37002 L 48.99668,-12.96925 L 48.64120,-13.56129 L 48.27829,-14.14605 L 47.90807,-14.72341 L 47.53069,-15.29329 L 47.14628,-15.85558 L 46.75497,-16.41021 L 46.35692,-16.95707 L 45.95226,-17.49609 L 45.54113,-18.02717 L 45.12368,-18.55025 L 44.70005,-19.06522 L 44.27039,-19.57203 L 43.83484,-20.07060 L 43.39356,-20.56084 L 42.94669,-21.04271 L 42.49438,-21.51612 L 42.03678,-21.98101 L 41.57405,-22.43733 L 41.10633,-22.88501 L 40.63378,-23.32401 L 40.15655,-23.75425 L 39.67479,-24.17570 L 39.18867,-24.58831 L 38.69834,-24.99203 L 38.20394,-25.38681 L 37.70564,-25.77263 L 37.20360,-26.14943 L 36.69797,-26.51719 L 36.18891,-26.87587 L 35.67657,-27.22544 L 35.16112,-27.56588 L 34.64271,-27.89717 L 34.12150,-28.21928 L 33.59765,-28.53219 L 33.07132,-28.83588 L 32.54266,-29.13035 L 32.01183,-29.41559 L 31.47900,-29.69158 L 30.94431,-29.95832 L 30.40793,-30.21581 L 29.87002,-30.46405 L 29.33072,-30.70304 L 28.79020,-30.93278 L 28.24862,-31.15329 L 27.70613,-31.36458 L 27.16288,-31.56665 L 26.61903,-31.75953 L 26.07474,-31.94323 L 25.53016,-32.11778 L 24.98544,-32.28319 L 24.44073,-32.43950 L 23.89620,-32.58674 L 23.35198,-32.72493 L 22.80823,-32.85410 L 22.26509,-32.97431 L 21.72273,-33.08558 L 21.18128,-33.18795 L 20.64088,-33.28148 L 20.10170,-33.36620 L 19.56386,-33.44217 L 19.02752,-33.50944 L 18.49281,-33.56805 L 17.95989,-33.61807 L 17.42888,-33.65956 L 16.89992,-33.69257 L 16.37316,-33.71717 L 15.84873,-33.73342 L 15.32676,-33.74139 L 14.80739,-33.74115 L 14.29074,-33.73277 L 13.77696,-33.71633 L 13.26616,-33.69189 L 12.75848,-33.65955 L 12.25404,-33.61938 L 11.75296,-33.57145 L 11.25537,-33.51587 L 10.76138,-33.45270 L 10.39153,-33.73557 L 10.01637,-34.01394 L 9.63596,-34.28772 L 9.25037,-34.55682 L 8.85965,-34.82117 L 8.46387,-35.08067 L 8.06309,-35.33525 L 7.65738,-35.58482 L 7.24681,-35.82931 L 6.83144,-36.06864 L 6.41134,-36.30272 L 5.98659,-36.53148 L 5.55725,-36.75485 L 5.12339,-36.97274 L 4.68510,-37.18508 L 4.24245,-37.39180 L 3.79551,-37.59283 L 3.34435,-37.78809 L 2.88907,-37.97751 L 2.42973,-38.16103 L 1.96642,-38.33857 L 1.49921,-38.51006 L 1.02820,-38.67545 L 0.55346,-38.83467 L 0.07508,-38.98764 L -0.40686,-39.13432 L -0.89227,-39.27463 L -1.38106,-39.40852 L -1.87314,-39.53592 L -2.36843,-39.65679 L -2.86684,-39.77105 L -3.36827,-39.87867 L -3.87263,-39.97957 L -4.37983,-40.07371 L -4.88979,-40.16104 L -5.40239,-40.24151 L -5.91755,-40.31506 L -6.43517,-40.38165 L -6.95516,-40.44123 L -7.47742,-40.49375 L -8.00184,-40.53918 L -8.52834,-40.57747 L -9.05681,-40.60858 L -9.58715,-40.63246 L -10.11926,-40.64908 L -10.65304,-40.65841 L -11.18839,-40.66040 L -11.72520,-40.65502 L -12.26338,-40.64224 L -12.80281,-40.62203 L -13.34340,-40.59436 L -13.88503,-40.55919 L -14.42761,-40.51651 L -14.97102,-40.46628 L -15.51517,-40.40848 L -16.05994,-40.34309 L -16.60522,-40.27009 L -17.15092,-40.18945 L -17.69691,-40.10116 L -18.24311,-40.00521 L -18.78938,-39.90157 L -19.33563,-39.79023 L -19.88175,-39.67119 L -20.42762,-39.54442 L -20.97314,-39.40993 L -21.51819,-39.26770 L -22.06268,-39.11772 L -22.60647,-38.96000 L -23.14948,-38.79453 L -23.69157,-38.62130 L -24.23265,-38.44032 L -24.77261,-38.25159 L -25.31132,-38.05512 L -25.84868,-37.85090 L -26.38458,-37.63895 L -26.91891,-37.41926 L -27.45155,-37.19186 L -27.98240,-36.95675 L -28.51134,-36.71395 L -29.03826,-36.46346 L -29.56305,-36.20532 L -30.08561,-35.93952 L -30.60581,-35.66609 L -31.12354,-35.38506 L -31.63871,-35.09644 L -32.15119,-34.80025 L -32.66087,-34.49654 L -33.16766,-34.18531 L -33.67143,-33.86659 L -34.17207,-33.54043 L -34.66949,-33.20685 L -35.16356,-32.86588 L -35.65418,-32.51755 L -36.14125,-32.16191 L -36.62465,-31.79900 L -37.10427,-31.42884 L -37.58002,-31.05148 L -38.05178,-30.66697 L -38.51945,-30.27535 L -38.98291,-29.87666 L -39.44208,-29.47096 L -39.89684,-29.05828 L -40.34708,-28.63868 L -40.79272,-28.21221 L -41.23363,-27.77893 L -41.66972,-27.33888 L -42.10089,-26.89213 L -42.52704,-26.43873 L -42.94807,-25.97875 L -43.36388,-25.51223 L -43.77436,-25.03925 L -44.17943,-24.55987 L -44.57898,-24.07415 L -44.97291,-23.58216 L -45.36114,-23.08396 L -45.74357,-22.57963 L -46.12010,-22.06924 L -46.49064,-21.55285 L -46.85509,-21.03054 L -47.21338,-20.50240 L -47.56540,-19.96848 L -47.91106,-19.42887 L -48.25029,-18.88365 L -48.58298,-18.33290 L -48.90906,-17.77670 "/>
<circle cx="0.00000" cy="0.00000" r="1" fill="red"/>
<line x1="0.00000" y1="0.00000" x2="10.00000" y2="0.00000" stroke="blue" stroke-width="0.5"/>
<line x1="0.00000" y1="0.00000" x2="0.00000" y2="-10.00000" stroke="blue" stroke-width="0.5"/>
</g>
</svg>
