<?xml version="1.0" standalone="no"?>
<!DOCTYPE svg PUBLIC "-//W3C//DTD SVG 1.1//EN"
  "http://www.w3.org/Graphics/SVG/1.1/DTD/svg11.dtd">
<svg width="200mm" height="200mm" viewBox="-100 -100 200 200" xmlns="http://www.w3.org/2000/svg" version="1.1">
<g stroke="orange" stroke-width="0.5" fill="none">
<path d="M 73.85203,-37.57688 L 73.22295,-38.33263 L 72.58578,-39.07842 L 71.94067,-39.81417 L 71.28778,-40.53978 L 70.62727,-41.25518 L 69.95927,-41.96029 L 69.28396,-42.65502 L 68.60148,-43.33930 L 67.91200,-44.01305 L 67.21566,-44.67621 L 66.51264,-45.32870 L 65.80308,-45.97046 L 65.08714,-46.60142 L 64.36500,-47.22151 L 63.63680,-47.83069 L 62.90271,-48.42889 L 62.16289,-49.01605 L 61.41751,-49.59213 L 60.66672,-50.15707 L 59.91068,-50.71081 L 59.14957,-51.25333 L 58.38355,-51.78457 L 57.61277,-52.30449 L 56.83741,-52.81306 L 56.05763,-53.31022 L 55.27359,-53.79597 L 54.48546,-54.27025 L 53.69341,-54.73303 L 52.89759,-55.18431 L 52.09818,-55.62404 L 51.29534,-56.05220 L 50.48923,-56.46878 L 49.68002,-56.87376 L 48.86788,-57.26712 L 48.05297,-57.64884 L 47.23546,-58.01893 L 46.41551,-58.37736 L 45.59328,-58.72413 L 44.76894,-59.05924 L 43.94266,-59.38269 L 43.11460,-59.69448 L 42.28492,-59.99461 L 41.45378,-60.28308 L 40.62135,-60.55990 L 39.78780,-60.82509 L 38.95328,-61.07866 L 38.11795,-61.32061 L 37.28198,-61.55097 L 36.44552,-61.76975 L 35.60874,-61.97697 L 34.77180,-62.17267 L 33.93485,-62.35686 L 33.09806,-62.52957 L 32.26157,-62.69083 L 31.42555,-62.84067 L 30.59016,-62.97913 L 29.75554,-63.10624 L 28.92186,-63.22204 L 28.08926,-63.32657 L 27.25790,-63.41988 L 26.42794,-63.50200 L 25.59951,-63.57299 L 24.77278,-63.63289 L 23.94789,-63.68175 L 23.12499,-63.71963 L 22.30422,-63.74657 L 21.48574,-63.76264 L 20.66968,-63.76790 L 19.85620,-63.76240 L 19.04543,-63.74621 L 18.23751,-63.71939 L 17.43260,-63.68200 L 16.63081,-63.63412 L 15.83230,-63.57582 L 15.03720,-63.50716 L 14.24564,-63.42822 L 13.45777,-63.33907 L 12.67370,-63.23979 L 11.89358,-63.13046 L 11.11754,-63.01117 L 10.34570,-62.88198 L 9.57819,-62.74298 L 8.81513,-62.59427 L 8.05666,-62.43592 L 7.30289,-62.26803 L 6.55394,-62.09068 L 5.80994,-61.90397 L 5.07101,-61.70798 L 4.33726,-61.50282 L 3.60880,-61.28858 L 2.88576,-61.06536 L 2.16824,-60.83325 L 1.45635,-60.59236 L 0.75021,-60.34279 L 0.04992,-60.08463 L -0.64442,-59.81800 L -1.33269,-59.54300 L -2.01481,-59.25974 L -2.69066,-58.96832 L -3.36014,-58.66886 L -4.02317,-58.36146 L -4.67964,-58.04624 L -5.32946,-57.72331 L -5.97254,-57.39278 L -6.60879,-57.05477 L -7.23812,-56.70940 L -7.86045,-56.35677 L -8.47568,-55.99702 L -9.08374,-55.63025 L -9.68454,-55.25660 L -10.27801,-54.87617 L -10.86407,-54.48910 L -11.44264,-54.09550 L -12.01366,-53.69549 L -12.57704,-53.28922 L -13.13272,-52.87678 L -13.68063,-52.45833 L -14.22070,-52.03397 L -14.75287,-51.60384 L -15.27709,-51.16807 L -15.79328,-50.72678 L -16.30139,-50.28010 L -16.80137,-49.82817 L -17.29316,-49.37111 L -17.77670,-48.90906 L -18.33290,-48.58298 L -18.88365,-48.25029 L -19.42887,-47.91106 L -19.96848,-47.56540 L -20.50240,-47.21338 L -21.03054,-46.85509 L -21.55285,-46.49064 L -22.06924,-46.12010 L -22.57963,-45.74357 L -23.08396,-45.36114 L -23.58216,-44.97291 L -24.07415,-44.57898 L -24.55987,-44.17943 L -25.03925,-43.77436 L -25.51223,-43.36388 L -25.97875,-42.94807 L -26.43873,-42.52704 L -26.89213,-42.10089 L -27.33888,-41.66972 L -27.77893,-41.23363 L -28.21221,-40.79272 L -28.63868,-40.34708 L -29.05828,-39.89684 L -29.47096,-39.44208 L -29.87666,-38.98291 L -30.27535,-38.51945 L -30.66697,-38.05178 L -31.05148,-37.58002 L -31.42884,-37.10427 L -31.79900,-36.62465 L -32.16191,-36.14125 L -32.51755,-35.65418 L -32.86588,-35.16356 L -33.20685,-34.66949 L -33.54043,-34.17207 L -33.86659,-33.67143 L -34.18531,-33.16766 L -34.49654,-32.66087 L -34.80025,-32.15119 L -35.09644,-31.63871 L -35.38506,-31.12354 L -35.66609,-30.60581 L -35.93952,-30.08561 L -36.20532,-29.56305 L -36.46346,-29.03826 L -36.71395,-28.51134 L -36.95675,-27.98240 L -37.19186,-27.45155 L -37.41926,-26.91891 L -37.63895,-26.38458 L -37.85090,-25.84868 L -38.05512,-25.31132 L -38.25159,-24.77261 L -38.44032,-24.23265 L -38.62130,-23.69157 L -38.79453,-23.14948 L -38.96000,-22.60647 L -39.11772,-22.06268 L -39.26770,-21.51819 L -39.40993,-20.97314 L -39.54442,-20.42762 L -39.67119,-19.88175 L -39.79023,-19.33563 L -39.90157,-18.78938 L -40.00521,-18.24311 L -40.10116,-17.69691 L -40.18945,-17.15092 L -40.27009,-16.60522 L -40.34309,-16.05994 L -40.40848,-15.51517 L -40.46628,-14.97102 L -40.51651,-14.42761 L -40.55919,-13.88503 L -40.59436,-13.34340 L -40.62203,-12.80281 L -40.64224,-12.26338 L -40.65502,-11.72520 L -40.66040,-11.18839 L -40.65841,-10.65304 L -40.64908,-10.11926 L -40.63246,-9.58715 L -40.60858,-9.05681 L -40.57747,-8.52834 L -40.53918,-8.00184 L -40.49375,-7.47742 L -40.44123,-6.95516 L -40.38165,-6.43517 L -40.31506,-5.91755 L -40.24151,-5.40239 L -40.16104,-4.88979 L -40.07371,-4.37983 L -39.97957,-3.87263 L -39.87867,-3.36827 L -39.77105,-2.86684 L -39.65679,-2.36843 L -39.53592,-1.87314 L -39.40852,-1.38106 L -39.27463,-0.89227 L -39.13432,-0.40686 L -38.98764,0.07508 L -38.83467,0.55346 L -38.67545,1.02820 L -38.51006,1.49921 L -38.33857,1.96642 L -38.16103,2.42973 L -37.97751,2.88907 L -37.78809,3.34435 L -37.59283,3.79551 L -37.39180,4.24245 L -37.18508,4.68510 L -36.97274,5.12339 L -36.75485,5.55725 L -36.53148,5.98659 L -36.30272,6.41134 L -36.06864,6.83144 L -35.82931,7.24681 L -35.58482,7.65738 L -35.33525,8.06309 L -35.08067,8.46387 L -34.82117,8.85965 L -34.55682,9.25037 L -34.28772,9.63596 L -34.01394,10.01637 L -33.73557,10.39153 L -33.45270,10.76138 L -33.51587,11.25537 L -33.57145,11.75296 L -33.61938,12.25404 L -33.65955,12.75848 L -33.69189,13.26616 L -33.71633,13.77696 L -33.73277,14.29074 L -33.74115,14.80739 L -33.74139,15.32676 L -33.73342,15.84873 L -33.71717,16.37316 L -33.69257,16.89992 L -33.65956,17.42888 L -33.61807,17.95989 L -33.56805,18.49281 L -33.50944,19.02752 L -33.44217,19.56386 L -33.36620,20.10170 L -33.28148,20.64088 L -33.18795,21.18128 L -33.08558,21.72273 L -32.97431,22.26509 L -32.85410,22.80823 L -32.72493,23.35198 L -32.58674,23.89620 L -32.43950,24.44073 L -32.28319,24.98544 L -32.11778,25.53016 L -31.94323,26.07474 L -31.75953,26.61903 L -31.56665,27.16288 L -31.36458,27.70613 L -31.15329,28.24862 L -30.93278,28.79020 L -30.70304,29.33072 L -30.46405,29.87002 L -30.21581,30.40793 L -29.95832,30.94431 L -29.69158,31.47900 L -29.41559,32.01183 L -29.13035,32.54266 L -28.83588,33.07132 L -28.53219,33.59765 L -28.21928,34.12150 L -27.89717,34.64271 L -27.56588,35.16112 L -27.22544,35.67657 L -26.87587,36.18891 L -26.51719,36.69797 L -26.14943,37.20360 L -25.77263,37.70564 L -25.38681,38.20394 L -24.99203,38.69834 L -24.58831,39.18867 L -24.17570,39.67479 L -23.75425,40.15655 L -23.32401,40.63378 L -22.88501,41.10633 L -22.43733,41.57405 L -21.98101,42.03678 L -21.51612,42.49438 L -21.04271,42.94669 L -20.56084,43.39356 L -20.07060,43.83484 L -19.57203,44.27039 L -19.06522,44.70005 L -18.55025,45.12368 L -18.02717,45.54113 L -17.49609,45.95226 L -16.95707,46.35692 L -16.41021,46.75497 L -15.85558,47.14628 L -15.29329,47.53069 L -14.72341,47.90807 L -14.14605,48.27829 L -13.56129,48.64120 L -12.96925,48.99668 L -12.37002,49.34458 L -11.76370,49.68479 L -11.15040,50.01716 L -10.53023,50.34157 L -9.90330,50.65789 L -9.26971,50.96599 L -8.62960,51.26576 L -7.98307,51.55707 L -7.33023,51.83980 L -6.67123,52.11383 L -6.00616,52.37905 L -5.33518,52.63533 L -4.65838,52.88258 L -3.97592,53.12067 L -3.28792,53.34949 L -2.59451,53.56895 L -1.89583,53.77893 L -1.19202,53.97934 L -0.48321,54.17007 L 0.23045,54.35101 L 0.94883,54.52209 L 1.67177,54.68320 L 2.39914,54.83425 L 3.13078,54.97515 L 3.86654,55.10581 L 4.60628,55.22615 L 5.34984,55.33609 L 6.09707,55.43553 L 6.84781,55.52442 L 7.60190,55.60267 L 8.35920,55.67020 L 9.11952,55.72695 L 9.88273,55.77284 L 10.64865,55.80782 L 11.41712,55.83182 L 12.18798,55.84478 L 12.96106,55.84664 L 13.73619,55.83734 L 14.51320,55.81683 L 15.29194,55.78506 L 16.07222,55.74199 L 16.85387,55.68757 L 17.63673,55.62175 L 18.42061,55.54450 L 19.20536,55.45578 L 19.99079,55.35555 L 20.77672,55.24379 L 21.56299,55.12046 L 22.36970,55.01531 L 23.17736,54.89812 L 23.98581,54.76887 L 24.79485,54.62752 L 25.60431,54.47402 L 26.41400,54.30835 L 27.22374,54.13048 L 28.03334,53.94038 L 28.84262,53.73802 L 29.65139,53.52338 L 30.45947,53.29645 L 31.26667,53.05721 L 32.07280,52.80564 L 32.87767,52.54174 L 33.68111,52.26549 L 34.48291,51.97690 L 35.28289,51.67595 L 36.08086,51.36266 L 36.87663,51.03702 L 37.67002,50.69904 L 38.46083,50.34874 L 39.24887,49.98611 L 40.03395,49.61118 L 40.81589,49.22397 L 41.59449,48.82450 L 42.36956,48.41278 L 43.14092,47.98885 L 43.90837,47.55274 L 44.67173,47.10447 L 45.43080,46.64408 L 46.18541,46.17162 L 46.93535,45.68712 L 47.68044,45.19062 L 48.42050,44.68218 L 49.15533,44.16184 L 49.88476,43.62965 L 50.60858,43.08567 L 51.32663,42.52995 L 52.03871,41.96256 L 52.74463,41.38356 L 53.44422,40.79302 L 54.13730,40.19101 L 54.82367,39.57759 L 55.50316,38.95285 L 56.17559,38.31686 L 56.84077,37.66969 L 57.49854,37.01144 L 58.14871,36.34219 L 58.79110,35.66203 L 59.42554,34.97105 L 60.05186,34.26934 L 60.66987,33.55700 L 61.27942,32.83413 L 61.88033,32.10083 L 62.47242,31.35721 L 63.05553,30.60337 L 63.62950,29.83942 L 64.19415,29.06548 L 64.74933,28.28166 L 65.29486,27.48808 L 65.83060,26.68486 L 66.35637,25.87212 L 66.87203,25.04999 L 67.37741,24.21859 L 67.87235,23.37806 L 68.35671,22.52852 L 68.83034,21.67012 L 69.29308,20.80299 L 69.74479,19.92726 L 70.18531,19.04309 L 70.61451,18.15062 L 71.03225,17.24999 L 71.43837,16.34136 L 71.83275,15.42486 L 72.21525,14.50067 L 72.58573,13.56893 L 72.94406,12.62980 L 73.29011,11.68345 L 73.62375,10.73002 L 73.94485,9.76970 L 74.25330,8.80264 L 74.54896,7.82902 L 74.83173,6.84900 L 75.10148,5.86276 L 75.35809,4.87046 L 75.60147,3.87230 L 75.83148,2.86844 L 76.04804,1.85907 L 76.25103,0.84436 L 76.44035,-0.17550 L 76.61590,-1.20032 L 76.77758,-2.22991 L 76.92529,-3.26410 L 77.05895,-4.30268 L 77.17847,-5.34547 L 77.28375,-6.39227 L 77.37471,-7.44289 L 77.45127,-8.49712 L 77.51335,-9.55478 L 77.56088,-10.61566 L 77.59378,-11.67957 L 77.61197,-12.74629 L 77.61539,-13.81563 L 77.60398,-14.88738 L 77.57767,-15.96134 L 77.53640,-17.03729 L 77.48012,-18.11503 L 77.40877,-19.19435 L 77.32229,-20.27505 L 77.22065,-21.35690 L 77.10379,-22.43969 L 76.97168,-23.52321 L 76.82427,-24.60726 L 76.66153,-25.69160 L 76.48342,-26.77603 L 76.28991,-27.86032 L 76.08098,-28.94427 L 75.85661,-30.02765 L 75.61676,-31.11023 L 75.36143,-32.19182 L 75.09059,-33.27217 L 74.80424,-34.35107 L 74.50237,-35.42831 L 74.18497,-36.50365 L 73.85203,-37.57688 "/>
<circle cx="0.00000" cy="0.00000" r="1" fill="red"/>
<line x1="0.00000" y1="0.00000" x2="10.00000" y2="0.00000" stroke="blue" stroke-width="0.5"/>
<line x1="0.00000" y1="0.00000" x2="0.00000" y2="-10.00000" stroke="blue" stroke-width="0.5"/>
</g>
</svg>
