<?xml version="1.0" standalone="no"?>
<!DOCTYPE svg PUBLIC "-//W3C//DTD SVG 1.1//EN"
  "http://www.w3.org/Graphics/SVG/1.1/DTD/svg11.dtd">
<svg width="200mm" height="200mm" viewBox="-100 -100 200 200" xmlns="http://www.w3.org/2000/svg" version="1.1">
<g stroke="orange" stroke-width="0.5" fill="none">
<path d="M -48.90906,-17.77670 L -49.02504,-17.65659 L -49.14070,-17.53596 L -49.25606,-17.41482 L -49.37111,-17.29316 L -49.48585,-17.17098 L -49.60027,-17.04829 L -49.71438,-16.92509 L -49.82817,-16.80137 L -49.94164,-16.67714 L -50.05479,-16.55240 L -50.16761,-16.42715 L -50.28010,-16.30139 L -50.39227,-16.17513 L -50.50411,-16.04835 L -50.61561,-15.92107 L -50.72678,-15.79328 L -50.83761,-15.66499 L -50.94810,-15.53619 L -51.05826,-15.40689 L -51.16807,-15.27709 L -51.27753,-15.14678 L -51.38665,-15.01598 L -51.49542,-14.88468 L -51.60384,-14.75287 L -51.71191,-14.62057 L -51.81962,-14.48778 L -51.92697,-14.35449 L -52.03397,-14.22070 L -52.14061,-14.08642 L -52.24688,-13.95165 L -52.35279,-13.81638 L -52.45833,-13.68063 L -52.56350,-13.54438 L -52.66830,-13.40765 L -52.77273,-13.27042 L -52.87678,-13.13272 L -52.98046,-12.99452 L -53.08376,-12.85584 L -53.18668,-12.71668 L -53.28922,-12.57704 L -53.39137,-12.43691 L -53.49313,-12.29631 L -53.59451,-12.15522 L -53.69549,-12.01366 L -53.79609,-11.87162 L -53.89629,-11.72910 L -53.99609,-11.58611 L -54.09550,-11.44264 L -54.19450,-11.29871 L -54.29310,-11.15430 L -54.39130,-11.00942 L -54.48910,-10.86407 L -54.58648,-10.71826 L -54.68346,-10.57197 L -54.78002,-10.42523 L -54.87617,-10.27801 L -54.97191,-10.13034 L -55.06722,-9.98220 L -55.16212,-9.83360 L -55.25660,-9.68454 L -55.35065,-9.53503 L -55.44428,-9.38505 L -55.53748,-9.23462 L -55.63025,-9.08374 L -55.72259,-8.93240 L -55.81450,-8.78061 L -55.90598,-8.62837 L -55.99702,-8.47568 L -56.08762,-8.32254 L -56.17778,-8.16895 L -56.26750,-8.01492 L -56.35677,-7.86045 L -56.44560,-7.70553 L -56.53398,-7.55017 L -56.62191,-7.39436 L -56.70940,-7.23812 L -56.79642,-7.08144 L -56.88300,-6.92433 L -56.96911,-6.76678 L -57.05477,-6.60879 L -57.13997,-6.45038 L -57.22470,-6.29153 L -57.30897,-6.13225 L -57.39278,-5.97254 L -57.47612,-5.81241 L -57.55899,-5.65185 L -57.64138,-5.49087 L -57.72331,-5.32946 L -57.80476,-5.16763 L -57.88573,-5.00539 L -57.96623,-4.84272 L -58.04624,-4.67964 L -58.12577,-4.51614 L -58.20482,-4.35223 L -58.28338,-4.18790 L -58.36146,-4.02317 L -58.43905,-3.85802 L -58.51614,-3.69247 L -58.59275,-3.52651 L -58.66886,-3.36014 L -58.74447,-3.19337 L -58.81959,-3.02620 L -58.89421,-2.85863 L -58.96832,-2.69066 L -59.04193,-2.52229 L -59.11504,-2.35352 L -59.18764,-2.18436 L -59.25974,-2.01481 L -59.33132,-1.84486 L -59.40240,-1.67453 L -59.47296,-1.50380 L -59.54300,-1.33269 L -59.61253,-1.16120 L -59.68154,-0.98932 L -59.75003,-0.81706 L -59.81800,-0.64442 L -59.88545,-0.47140 L -59.95237,-0.29800 L -60.01876,-0.12423 L -60.08463,0.04992 L -60.14997,0.22444 L -60.21477,0.39933 L -60.27905,0.57458 L -60.34279,0.75021 L -60.40599,0.92620 L -60.46865,1.10256 L -60.53078,1.27927 L -60.59236,1.45635 L -60.65340,1.63379 L -60.71390,1.81159 L -60.77385,1.98974 L -60.83325,2.16824 L -60.89211,2.34710 L -60.95041,2.52630 L -61.00816,2.70586 L -61.06536,2.88576 L -61.12200,3.06601 L -61.17809,3.24660 L -61.23362,3.42753 L -61.28858,3.60880 L -61.34299,3.79041 L -61.39683,3.97236 L -61.45011,4.15464 L -61.50282,4.33726 L -61.55497,4.52020 L -61.60655,4.70348 L -61.65755,4.88708 L -61.70798,5.07101 L -61.75784,5.25526 L -61.80713,5.43984 L -61.85584,5.62473 L -61.90397,5.80994 L -61.95152,5.99547 L -61.99849,6.18132 L -62.04488,6.36747 L -62.09068,6.55394 L -62.13590,6.74072 L -62.18053,6.92780 L -62.22457,7.11519 L -62.26803,7.30289 L -62.31089,7.49088 L -62.35316,7.67918 L -62.39484,7.86777 L -62.43592,8.05666 L -62.47641,8.24584 L -62.51629,8.43531 L -62.55558,8.62508 L -62.59427,8.81513 L -62.63235,9.00547 L -62.66984,9.19609 L -62.70671,9.38700 L -62.74298,9.57819 L -62.77865,9.76965 L -62.81370,9.96139 L -62.84814,10.15341 L -62.88198,10.34570 L -62.91520,10.53826 L -62.94780,10.73108 L -62.97979,10.92418 L -63.01117,11.11754 L -63.04192,11.31116 L -63.07206,11.50504 L -63.10157,11.69919 L -63.13046,11.89358 L -63.15873,12.08824 L -63.18638,12.28314 L -63.21340,12.47830 L -63.23979,12.67370 L -63.26556,12.86936 L -63.29069,13.06525 L -63.31520,13.26139 L -63.33907,13.45777 L -63.36231,13.65438 L -63.38491,13.85124 L -63.40688,14.04832 L -63.42822,14.24564 L -63.44891,14.44319 L -63.46897,14.64097 L -63.48838,14.83897 L -63.50716,15.03720 L -63.52529,15.23565 L -63.54278,15.43431 L -63.55962,15.63320 L -63.57582,15.83230 L -63.59137,16.03161 L -63.60627,16.23114 L -63.62052,16.43087 L -63.63412,16.63081 L -63.64707,16.83096 L -63.65937,17.03130 L -63.67101,17.23185 L -63.68200,17.43260 L -63.69234,17.63354 L -63.70201,17.83467 L -63.71103,18.03600 L -63.71939,18.23751 L -63.72709,18.43922 L -63.73412,18.64111 L -63.74050,18.84318 L -63.74621,19.04543 L -63.75126,19.24786 L -63.75564,19.45047 L -63.75935,19.65325 L -63.76240,19.85620 L -63.76478,20.05932 L -63.76649,20.26261 L -63.76753,20.46607 L -63.76790,20.66968 L -63.76760,20.87346 L -63.76662,21.07740 L -63.76497,21.28149 L -63.76264,21.48574 L -63.75964,21.69014 L -63.75596,21.89469 L -63.75161,22.09938 L -63.74657,22.30422 L -63.74086,22.50921 L -63.73446,22.71433 L -63.72738,22.91959 L -63.71963,23.12499 L -63.71118,23.33052 L -63.70206,23.53618 L -63.69225,23.74197 L -63.68175,23.94789 L -63.67056,24.15393 L -63.65869,24.36010 L -63.64614,24.56638 L -63.63289,24.77278 L -63.61895,24.97930 L -63.60432,25.18593 L -63.58900,25.39267 L -63.57299,25.59951 L -63.55628,25.80647 L -63.53888,26.01352 L -63.52079,26.22068 L -63.50200,26.42794 L -63.48252,26.63529 L -63.46234,26.84274 L -63.44146,27.05028 L -63.41988,27.25790 L -63.39760,27.46562 L -63.37463,27.67342 L -63.35095,27.88130 L -63.32657,28.08926 L -63.30149,28.29730 L -63.27571,28.50541 L -63.24923,28.71360 L -63.22204,28.92186 L -63.19415,29.13018 L -63.16555,29.33857 L -63.13625,29.54703 L -63.10624,29.75554 L -63.07552,29.96411 L -63.04410,30.17274 L -63.01197,30.38142 L -62.97913,30.59016 L -62.94558,30.79894 L -62.91132,31.00777 L -62.87635,31.21664 L -62.84067,31.42555 L -62.80428,31.63450 L -62.76717,31.84349 L -62.72936,32.05252 L -62.69083,32.26157 L -62.65158,32.47065 L -62.61163,32.67976 L -62.57095,32.88890 L -62.52957,33.09806 L -62.48746,33.30723 L -62.44465,33.51642 L -62.40111,33.72563 L -62.35686,33.93485 L -62.31189,34.14408 L -62.26620,34.35332 L -62.21979,34.56256 L -62.17267,34.77180 L -62.12483,34.98104 L -62.07626,35.19028 L -62.02698,35.39951 L -61.97697,35.60874 L -61.92625,35.81796 L -61.87480,36.02716 L -61.82264,36.23635 L -61.76975,36.44552 L -61.71614,36.65467 L -61.66180,36.86380 L -61.60675,37.07290 L -61.55097,37.28198 L -61.49446,37.49102 L -61.43723,37.70003 L -61.37928,37.90901 L -61.32061,38.11795 L -61.26121,38.32685 L -61.20108,38.53570 L -61.14023,38.74451 L -61.07866,38.95328 L -61.01635,39.16199 L -60.95333,39.37065 L -60.88957,39.57925 L -60.82509,39.78780 L -60.75989,39.99628 L -60.69395,40.20471 L -60.62729,40.41306 L -60.55990,40.62135 L -60.49179,40.82957 L -60.42295,41.03772 L -60.35338,41.24579 L -60.28308,41.45378 L -60.21205,41.66169 L -60.14030,41.86952 L -60.06782,42.07726 L -59.99461,42.28492 L -59.92067,42.49248 L -59.84600,42.69995 L -59.77060,42.90732 L -59.69448,43.11460 L -59.61763,43.32177 L -59.54004,43.52884 L -59.46173,43.73581 L -59.38269,43.94266 L -59.30292,44.14940 L -59.22243,44.35603 L -59.14120,44.56255 L -59.05924,44.76894 L -58.97656,44.97522 L -58.89315,45.18136 L -58.80900,45.38739 L -58.72413,45.59328 L -58.63853,45.79904 L -58.55220,46.00467 L -58.46514,46.21016 L -58.37736,46.41551 L -58.28884,46.62071 L -58.19960,46.82578 L -58.10963,47.03069 L -58.01893,47.23546 L -57.92750,47.44007 L -57.83534,47.64453 L -57.74245,47.84883 L -57.64884,48.05297 L -57.55450,48.25695 L -57.45943,48.46076 L -57.36364,48.66441 L -57.26712,48.86788 L -57.16987,49.07118 L -57.07189,49.27431 L -56.97319,49.47726 L -56.87376,49.68002 L -56.77360,49.88261 L -56.67272,50.08500 L -56.57111,50.28721 L -56.46878,50.48923 L -56.36572,50.69105 L -56.26194,50.89268 L -56.15743,51.09411 L -56.05220,51.29534 L -55.94625,51.49636 L -55.83957,51.69718 L -55.73216,51.89778 L -55.62404,52.09818 L -55.51519,52.29836 L -55.40562,52.49832 L -55.29532,52.69807 L -55.18431,52.89759 L -55.07257,53.09689 L -54.96011,53.29596 L -54.84693,53.49480 L -54.73303,53.69341 L -54.61842,53.89178 L -54.50308,54.08992 L -54.38702,54.28781 L -54.27025,54.48546 L -54.15275,54.68287 L -54.03454,54.88003 L -53.91561,55.07694 L -53.79597,55.27359 L -53.67560,55.46999 L -53.55453,55.66613 L -53.43273,55.86201 L -53.31022,56.05763 L -53.18700,56.25298 L -53.06307,56.44806 L -52.93842,56.64287 L -52.81306,56.83741 L -52.68698,57.03167 L -52.56020,57.22566 L -52.43270,57.41936 L -52.30449,57.61277 L -52.17557,57.80590 L -52.04595,57.99874 L -51.91561,58.19129 L -51.78457,58.38355 L -51.65282,58.57551 L -51.52036,58.76716 L -51.38720,58.95852 L -51.25333,59.14957 L -51.11876,59.34032 L -50.98348,59.53075 L -50.84750,59.72088 L -50.71081,59.91068 L -50.57343,60.10017 L -50.43534,60.28934 L -50.29655,60.47819 L -50.15707,60.66672 L -50.01688,60.85491 L -49.87599,61.04278 L -49.73441,61.23031 L -49.59213,61.41751 L -49.44915,61.60437 L -49.30548,61.79089 L -49.16111,61.97706 L -49.01605,62.16289 L -48.87030,62.34838 L -48.72385,62.53351 L -48.57672,62.71829 L -48.42889,62.90271 L -48.28037,63.08678 L -48.13117,63.27048 L -47.98127,63.45382 L -47.83069,63.63680 L -47.67942,63.81941 L -47.52747,64.00165 L -47.37483,64.18351 L -47.22151,64.36500 L -47.06751,64.54611 L -46.91283,64.72684 L -46.75746,64.90718 L -46.60142,65.08714 L -46.44469,65.26672 L -46.28729,65.44590 L -46.12921,65.62469 L -45.97046,65.80308 L -45.81103,65.98107 L -45.65092,66.15866 L -45.49015,66.33585 L -45.32870,66.51264 L -45.16658,66.68901 L -45.00379,66.86498 L -44.84033,67.04053 L -44.67621,67.21566 L -44.51142,67.39038 L -44.34596,67.56468 L -44.17984,67.73855 L -44.01305,67.91200 L -43.84560,68.08502 L -43.67749,68.25761 L -43.50872,68.42976 L -43.33930,68.60148 L -43.16921,68.77276 L -42.99847,68.94361 L -42.82707,69.11401 L -42.65502,69.28396 L -42.48231,69.45347 L -42.30895,69.62252 L -42.13494,69.79112 L -41.96029,69.95927 L -41.78498,70.12696 L -41.60903,70.29419 L -41.43243,70.46096 L -41.25518,70.62727 L -41.07729,70.79310 L -40.89876,70.95847 L -40.71959,71.12336 L -40.53978,71.28778 L -40.35933,71.45173 L -40.17825,71.61519 L -39.99652,71.77817 L -39.81417,71.94067 L -39.63118,72.10268 L -39.44755,72.26421 L -39.26330,72.42524 L -39.07842,72.58578 L -38.89291,72.74582 L -38.70677,72.90536 L -38.52001,73.06441 L -38.33263,73.22295 L -38.14462,73.38098 L -37.95599,73.53851 L -37.76674,73.69553 L -37.57688,73.85203 L -37.30878,73.93672 L -37.04054,74.02044 L -36.77216,74.10319 L -36.50365,74.18497 L -36.23500,74.26577 L -35.96623,74.34561 L -35.69733,74.42447 L -35.42831,74.50237 L -35.15917,74.57929 L -34.88991,74.65525 L -34.62055,74.73023 L -34.35107,74.80424 L -34.08150,74.87729 L -33.81182,74.94936 L -33.54204,75.02046 L -33.27217,75.09059 L -33.00221,75.15976 L -32.73216,75.22795 L -32.46203,75.29517 L -32.19182,75.36143 L -31.92153,75.42672 L -31.65116,75.49103 L -31.38073,75.55438 L -31.11023,75.61676 L -30.83967,75.67817 L -30.56905,75.73862 L -30.29837,75.79810 L -30.02765,75.85661 L -29.75687,75.91415 L -29.48604,75.97073 L -29.21517,76.02634 L -28.94427,76.08098 L -28.67333,76.13466 L -28.40235,76.18738 L -28.13135,76.23913 L -27.86032,76.28991 L -27.58927,76.33973 L -27.31820,76.38859 L -27.04712,76.43649 L -26.77603,76.48342 L -26.50492,76.52939 L -26.23382,76.57439 L -25.96271,76.61844 L -25.69160,76.66153 L -25.42050,76.70365 L -25.14940,76.74482 L -24.87832,76.78502 L -24.60726,76.82427 L -24.33621,76.86256 L -24.06518,76.89989 L -23.79418,76.93626 L -23.52321,76.97168 L -23.25228,77.00614 L -22.98137,77.03965 L -22.71051,77.07220 L -22.43969,77.10379 L -22.16891,77.13444 L -21.89819,77.16413 L -21.62751,77.19286 L -21.35690,77.22065 L -21.08634,77.24748 L -20.81584,77.27337 L -20.54541,77.29831 L -20.27505,77.32229 L -20.00476,77.34533 L -19.73454,77.36742 L -19.46441,77.38857 L -19.19435,77.40877 L -18.92439,77.42802 L -18.65451,77.44633 L -18.38472,77.46370 L -18.11503,77.48012 L -17.84544,77.49560 L -17.57595,77.51014 L -17.30657,77.52374 L -17.03729,77.53640 L -16.76812,77.54813 L -16.49908,77.55891 L -16.23014,77.56876 L -15.96134,77.57767 L -15.69265,77.58565 L -15.42410,77.59269 L -15.15567,77.59880 L -14.88738,77.60398 L -14.61923,77.60823 L -14.35122,77.61155 L -14.08335,77.61393 L -13.81563,77.61539 L -13.54806,77.61593 L -13.28065,77.61553 L -13.01339,77.61421 L -12.74629,77.61197 L -12.47936,77.60880 L -12.21259,77.60471 L -11.94599,77.59971 L -11.67957,77.59378 L -11.41332,77.58693 L -11.14725,77.57916 L -10.88136,77.57048 L -10.61566,77.56088 L -10.35015,77.55037 L -10.08483,77.53894 L -9.81971,77.52660 L -9.55478,77.51335 L -9.29006,77.49920 L -9.02554,77.48413 L -8.76122,77.46815 L -8.49712,77.45127 L -8.23323,77.43349 L -7.96956,77.41480 L -7.70611,77.39520 L -7.44289,77.37471 L -7.17988,77.35332 L -6.91711,77.33102 L -6.65457,77.30783 L -6.39227,77.28375 L -6.13020,77.25877 L -5.86838,77.23289 L -5.60680,77.20612 L -5.34547,77.17847 L -5.08439,77.14992 L -4.82356,77.12048 L -4.56299,77.09016 L -4.30268,77.05895 L -4.04263,77.02686 L -3.78285,76.99388 L -3.52334,76.96003 L -3.26410,76.92529 L -3.00513,76.88968 L -2.74644,76.85318 L -2.48804,76.81582 L -2.22991,76.77758 L -1.97208,76.73846 L -1.71453,76.69847 L -1.45728,76.65762 L -1.20032,76.61590 L -0.94366,76.57330 L -0.68730,76.52985 L -0.43124,76.48553 L -0.17550,76.44035 L 0.07994,76.39430 L 0.33506,76.34740 L 0.58987,76.29964 L 0.84436,76.25103 L 1.09853,76.20156 L 1.35237,76.15124 L 1.60588,76.10006 L 1.85907,76.04804 L 2.11192,75.99517 L 2.36443,75.94145 L 2.61661,75.88689 L 2.86844,75.83148 L 3.11993,75.77524 L 3.37107,75.71815 L 3.62186,75.66023 L 3.87230,75.60147 L 4.12238,75.54187 L 4.37211,75.48144 L 4.62147,75.42018 L 4.87046,75.35809 L 5.11910,75.29518 L 5.36736,75.23143 L 5.61524,75.16687 L 5.86276,75.10148 L 6.10989,75.03527 L 6.35665,74.96824 L 6.60302,74.90039 L 6.84900,74.83173 L 7.09460,74.76225 L 7.33980,74.69196 L 7.58461,74.62087 L 7.82902,74.54896 L 8.07303,74.47625 L 8.31664,74.40273 L 8.55985,74.32842 L 8.80264,74.25330 L 9.04503,74.17738 L 9.28700,74.10066 L 9.52856,74.02315 L 9.76970,73.94485 L 10.01042,73.86576 L 10.25072,73.78587 L 10.49058,73.70520 L 10.73002,73.62375 L 10.96903,73.54151 L 11.20761,73.45848 L 11.44575,73.37468 L 11.68345,73.29011 L 11.92070,73.20475 L 12.15752,73.11862 L 12.39388,73.03173 L 12.62980,72.94406 L 12.86527,72.85562 L 13.10028,72.76642 L 13.33483,72.67645 L 13.56893,72.58573 L 13.80256,72.49424 L 14.03573,72.40200 L 14.26844,72.30900 L 14.50067,72.21525 L 14.73243,72.12075 L 14.96372,72.02549 L 15.19453,71.92950 L 15.42486,71.83275 L 15.65472,71.73527 L 15.88408,71.63704 L 16.11296,71.53807 L 16.34136,71.43837 L 16.56926,71.33794 L 16.79667,71.23677 L 17.02358,71.13487 L 17.24999,71.03225 L 17.47591,70.92890 L 17.70132,70.82482 L 17.92622,70.72003 L 18.15062,70.61451 L 18.37451,70.50828 L 18.59789,70.40134 L 18.82075,70.29368 L 19.04309,70.18531 L 19.26492,70.07624 L 19.48623,69.96646 L 19.70701,69.85597 L 19.92726,69.74479 L 20.14699,69.63290 L 20.36619,69.52032 L 20.58486,69.40705 L 20.80299,69.29308 L 21.02058,69.17842 L 21.23764,69.06308 L 21.45415,68.94705 L 21.67012,68.83034 L 21.88554,68.71295 L 22.10042,68.59488 L 22.31475,68.47613 L 22.52852,68.35671 L 22.74174,68.23662 L 22.95441,68.11587 L 23.16651,67.99444 L 23.37806,67.87235 L 23.58904,67.74960 L 23.79946,67.62619 L 24.00931,67.50213 L 24.21859,67.37741 L 24.42730,67.25203 L 24.63544,67.12601 L 24.84300,66.99934 L 25.04999,66.87203 L 25.25640,66.74407 L 25.46222,66.61547 L 25.66746,66.48624 L 25.87212,66.35637 L 26.07619,66.22587 L 26.27967,66.09474 L 26.48256,65.96298 L 26.68486,65.83060 L 26.88656,65.69759 L 27.08767,65.56397 L 27.28818,65.42972 L 27.48808,65.29486 L 27.68739,65.15939 L 27.88609,65.02331 L 28.08418,64.88662 L 28.28166,64.74933 L 28.47854,64.61143 L 28.67480,64.47294 L 28.87045,64.33384 L 29.06548,64.19415 L 29.25990,64.05387 L 29.45370,63.91300 L 29.64687,63.77154 L 29.83942,63.62950 L 30.03135,63.48687 L 30.22265,63.34367 L 30.41333,63.19989 L 30.60337,63.05553 L 30.79278,62.91061 L 30.98156,62.76511 L 31.16970,62.61905 L 31.35721,62.47242 L 31.54408,62.32523 L 31.73030,62.17748 L 31.91589,62.02918 L 32.10083,61.88033 L 32.28513,61.73092 L 32.46878,61.58096 L 32.65178,61.43046 L 32.83413,61.27942 L 33.01583,61.12784 L 33.19688,60.97572 L 33.37727,60.82306 L 33.55700,60.66987 L 33.73608,60.51616 L 33.91449,60.36191 L 34.09225,60.20715 L 34.26934,60.05186 L 34.44577,59.89605 L 34.62153,59.73972 L 34.79662,59.58289 L 34.97105,59.42554 L 35.14480,59.26768 L 35.31789,59.10932 L 35.49030,58.95046 L 35.66203,58.79110 L 35.83309,58.63124 L 36.00347,58.47089 L 36.17317,58.31004 L 36.34219,58.14871 L 36.51053,57.98689 L 36.67819,57.82458 L 36.84516,57.66180 L 37.01144,57.49854 L 37.17704,57.33480 L 37.34195,57.17059 L 37.50617,57.00592 L 37.66969,56.84077 L 37.83253,56.67517 L 37.99466,56.50910 L 38.15611,56.34257 L 38.31686,56.17559 L 38.47690,56.00815 L 38.63625,55.84027 L 38.79490,55.67193 L 38.95285,55.50316 L 39.11009,55.33394 L 39.26663,55.16428 L 39.42247,54.99419 L 39.57759,54.82367 L 39.73201,54.65271 L 39.88572,54.48133 L 40.03872,54.30952 L 40.19101,54.13730 L 40.34259,53.96465 L 40.49345,53.79159 L 40.64359,53.61811 L 40.79302,53.44422 L 40.94174,53.26993 L 41.08973,53.09523 L 41.23701,52.92013 L 41.38356,52.74463 L 41.52940,52.56874 L 41.67451,52.39245 L 41.81890,52.21577 L 41.96256,52.03871 L 42.10550,51.86126 L 42.24771,51.68342 L 42.38920,51.50521 L 42.52995,51.32663 L 42.66998,51.14767 L 42.80927,50.96834 L 42.94783,50.78864 L 43.08567,50.60858 L 43.22276,50.42816 L 43.35913,50.24738 L 43.49476,50.06624 L 43.62965,49.88476 L 43.76380,49.70292 L 43.89722,49.52073 L 44.02990,49.33820 L 44.16184,49.15533 L 44.29304,48.97212 L 44.42349,48.78858 L 44.55321,48.60470 L 44.68218,48.42050 L 44.81041,48.23597 L 44.93789,48.05111 L 45.06463,47.86594 L 45.19062,47.68044 L 45.31587,47.49463 L 45.44037,47.30851 L 45.56412,47.12208 L 45.68712,46.93535 L 45.80937,46.74831 L 45.93087,46.56097 L 46.05162,46.37334 L 46.17162,46.18541 L 46.29087,45.99718 L 46.40936,45.80868 L 46.52710,45.61988 L 46.64408,45.43080 L 46.76031,45.24145 L 46.87579,45.05181 L 46.99051,44.86191 L 47.10447,44.67173 L 47.21767,44.48128 L 47.33012,44.29057 L 47.44181,44.09960 L 47.55274,43.90837 L 47.66290,43.71688 L 47.77231,43.52514 L 47.88096,43.33315 L 47.98885,43.14092 L 48.09598,42.94844 L 48.20234,42.75571 L 48.30794,42.56275 L 48.41278,42.36956 L 48.51685,42.17613 L 48.62017,41.98248 L 48.72271,41.78859 L 48.82450,41.59449 L 48.92551,41.40016 L 49.02577,41.20562 L 49.12525,41.01086 L 49.22397,40.81589 L 49.32193,40.62071 L 49.41911,40.42532 L 49.51553,40.22974 L 49.61118,40.03395 L 49.70607,39.83797 L 49.80018,39.64179 L 49.89353,39.44542 L 49.98611,39.24887 L 50.07792,39.05213 L 50.16896,38.85520 L 50.25923,38.65810 L 50.34874,38.46083 L 50.43747,38.26338 L 50.52543,38.06576 L 50.61262,37.86797 L 50.69904,37.67002 L 50.78470,37.47191 L 50.86958,37.27364 L 50.95368,37.07521 L 51.03702,36.87663 L 51.11959,36.67791 L 51.20138,36.47903 L 51.28241,36.28002 L 51.36266,36.08086 L 51.44214,35.88157 L 51.52085,35.68214 L 51.59879,35.48258 L 51.67595,35.28289 L 51.75235,35.08308 L 51.82797,34.88314 L 51.90282,34.68308 L 51.97690,34.48291 L 52.05020,34.28262 L 52.12274,34.08222 L 52.19450,33.88172 L 52.26549,33.68111 L 52.33571,33.48039 L 52.40516,33.27958 L 52.47383,33.07868 L 52.54174,32.87767 L 52.60887,32.67658 L 52.67523,32.47540 L 52.74082,32.27414 L 52.80564,32.07280 L 52.86969,31.87138 L 52.93297,31.66988 L 52.99547,31.46831 L 53.05721,31.26667 L 53.11817,31.06496 L 53.17837,30.86319 L 53.23780,30.66136 L 53.29645,30.45947 L 53.35434,30.25752 L 53.41145,30.05553 L 53.46780,29.85348 L 53.52338,29.65139 L 53.57819,29.44925 L 53.63224,29.24708 L 53.68551,29.04486 L 53.73802,28.84262 L 53.78976,28.64034 L 53.84073,28.43803 L 53.89094,28.23569 L 53.94038,28.03334 L 53.98905,27.83096 L 54.03696,27.62856 L 54.08410,27.42616 L 54.13048,27.22374 L 54.17609,27.02131 L 54.22094,26.81887 L 54.26503,26.61644 L 54.30835,26.41400 L 54.35091,26.21156 L 54.39271,26.00914 L 54.43375,25.80672 L 54.47402,25.60431 L 54.51354,25.40192 L 54.55229,25.19954 L 54.59028,24.99718 L 54.62752,24.79485 L 54.66399,24.59254 L 54.69971,24.39027 L 54.73467,24.18802 L 54.76887,23.98581 L 54.80232,23.78363 L 54.83501,23.58150 L 54.86694,23.37941 L 54.89812,23.17736 L 54.92855,22.97537 L 54.95822,22.77342 L 54.98714,22.57153 L 55.01531,22.36970 L 55.04272,22.16792 L 55.06939,21.96621 L 55.09530,21.76457 L 55.12046,21.56299 L 55.15238,21.36640 L 55.18357,21.16983 L 55.21404,20.97327 L 55.24379,20.77672 L 55.27281,20.58020 L 55.30111,20.38370 L 55.32869,20.18723 L 55.35555,19.99079 L 55.38169,19.79438 L 55.40710,19.59800 L 55.43180,19.40166 L 55.45578,19.20536 L 55.47903,19.00910 L 55.50157,18.81289 L 55.52339,18.61673 L 55.54450,18.42061 L 55.56488,18.22456 L 55.58455,18.02855 L 55.60351,17.83261 L 55.62175,17.63673 L 55.63927,17.44091 L 55.65608,17.24516 L 55.67218,17.04948 L 55.68757,16.85387 L 55.70224,16.65834 L 55.71620,16.46288 L 55.72945,16.26751 L 55.74199,16.07222 L 55.75382,15.87701 L 55.76494,15.68189 L 55.77536,15.48687 L 55.78506,15.29194 L 55.79406,15.09710 L 55.80236,14.90237 L 55.80994,14.70773 L 55.81683,14.51320 L 55.82301,14.31878 L 55.82849,14.12447 L 55.83326,13.93027 L 55.83734,13.73619 L 55.84071,13.54222 L 55.84338,13.34838 L 55.84536,13.15465 L 55.84664,12.96106 L 55.84721,12.76759 L 55.84710,12.57425 L 55.84629,12.38105 L 55.84478,12.18798 L 55.84258,11.99505 L 55.83968,11.80226 L 55.83610,11.60962 L 55.83182,11.41712 L 55.82686,11.22477 L 55.82120,11.03258 L 55.81486,10.84054 L 55.80782,10.64865 L 55.80011,10.45693 L 55.79170,10.26536 L 55.78262,10.07396 L 55.77284,9.88273 L 55.76239,9.69167 L 55.75126,9.50078 L 55.73944,9.31006 L 55.72695,9.11952 L 55.71377,8.92917 L 55.69992,8.73899 L 55.68540,8.54900 L 55.67020,8.35920 L 55.65432,8.16958 L 55.63778,7.98016 L 55.62056,7.79093 L 55.60267,7.60190 L 55.58411,7.41307 L 55.56488,7.22445 L 55.54498,7.03602 L 55.52442,6.84781 L 55.50319,6.65980 L 55.48130,6.47201 L 55.45875,6.28443 L 55.43553,6.09707 L 55.41166,5.90993 L 55.38713,5.72301 L 55.36193,5.53631 L 55.33609,5.34984 L 55.30958,5.16360 L 55.28242,4.97759 L 55.25461,4.79182 L 55.22615,4.60628 L 55.19704,4.42098 L 55.16728,4.23593 L 55.13687,4.05111 L 55.10581,3.86654 L 55.07411,3.68222 L 55.04176,3.49815 L 55.00878,3.31434 L 54.97515,3.13078 L 54.94088,2.94748 L 54.90597,2.76443 L 54.87043,2.58165 L 54.83425,2.39914 L 54.79743,2.21689 L 54.75999,2.03491 L 54.72191,1.85321 L 54.68320,1.67177 L 54.64386,1.49062 L 54.60390,1.30974 L 54.56331,1.12914 L 54.52209,0.94883 L 54.48025,0.76880 L 54.43779,0.58906 L 54.39471,0.40961 L 54.35101,0.23045 L 54.30670,0.05159 L 54.26177,-0.12698 L 54.21622,-0.30524 L 54.17007,-0.48321 L 54.12330,-0.66087 L 54.07592,-0.83823 L 54.02793,-1.01528 L 53.97934,-1.19202 L 53.93014,-1.36845 L 53.88034,-1.54456 L 53.82994,-1.72036 L 53.77893,-1.89583 L 53.72733,-2.07099 L 53.67513,-2.24582 L 53.62234,-2.42033 L 53.56895,-2.59451 L 53.51497,-2.76836 L 53.46040,-2.94188 L 53.40524,-3.11507 L 53.34949,-3.28792 L 53.29316,-3.46043 L 53.23625,-3.63261 L 53.17875,-3.80444 L 53.12067,-3.97592 L 53.06201,-4.14706 L 53.00277,-4.31785 L 52.94296,-4.48830 L 52.88258,-4.65838 L 52.82162,-4.82812 L 52.76009,-4.99750 L 52.69800,-5.16652 L 52.63533,-5.33518 L 52.57211,-5.50347 L 52.50831,-5.67140 L 52.44396,-5.83897 L 52.37905,-6.00616 L 52.31358,-6.17299 L 52.24755,-6.33944 L 52.18097,-6.50552 L 52.11383,-6.67123 L 52.04615,-6.83655 L 51.97791,-7.00149 L 51.90913,-7.16606 L 51.83980,-7.33023 L 51.76993,-7.49403 L 51.69952,-7.65743 L 51.62856,-7.82044 L 51.55707,-7.98307 L 51.48504,-8.14529 L 51.41248,-8.30713 L 51.33939,-8.46856 L 51.26576,-8.62960 L 51.19161,-8.79023 L 51.11693,-8.95047 L 51.04172,-9.11029 L 50.96599,-9.26971 L 50.88974,-9.42873 L 50.81297,-9.58733 L 50.73569,-9.74552 L 50.65789,-9.90330 L 50.57957,-10.06066 L 50.50075,-10.21760 L 50.42141,-10.37412 L 50.34157,-10.53023 L 50.26122,-10.68591 L 50.18036,-10.84117 L 50.09901,-10.99600 L 50.01716,-11.15040 L 49.93481,-11.30437 L 49.85196,-11.45791 L 49.76862,-11.61102 L 49.68479,-11.76370 L 49.60046,-11.91594 L 49.51566,-12.06774 L 49.43036,-12.21910 L 49.34458,-12.37002 L 49.25832,-12.52049 L 49.17159,-12.67052 L 49.08437,-12.82011 L 48.99668,-12.96925 L 48.90851,-13.11794 L 48.81988,-13.26618 L 48.73077,-13.41396 L 48.64120,-13.56129 L 48.55116,-13.70817 L 48.46067,-13.85459 L 48.36971,-14.00055 L 48.27829,-14.14605 L 48.18641,-14.29108 L 48.09408,-14.43566 L 48.00130,-14.57977 L 47.90807,-14.72341 L 47.81439,-14.86658 L 47.72027,-15.00929 L 47.62570,-15.15152 L 47.53069,-15.29329 L 47.43524,-15.43457 L 47.33935,-15.57539 L 47.24303,-15.71572 L 47.14628,-15.85558 L 47.04909,-15.99496 L 46.95148,-16.13386 L 46.85344,-16.27228 L 46.75497,-16.41021 L 46.65609,-16.54766 L 46.55678,-16.68462 L 46.45706,-16.82109 L 46.35692,-16.95707 L 46.25637,-17.09257 L 46.15541,-17.22757 L 46.05404,-17.36208 L 45.95226,-17.49609 L 45.85008,-17.62961 L 45.74749,-17.76263 L 45.64451,-17.89515 L 45.54113,-18.02717 L 45.43735,-18.15870 L 45.33319,-18.28972 L 45.22863,-18.42023 L 45.12368,-18.55025 L 45.01835,-18.67975 L 44.91263,-18.80875 L 44.80653,-18.93724 L 44.70005,-19.06522 L 44.59320,-19.19269 L 44.48597,-19.31965 L 44.37836,-19.44610 L 44.27039,-19.57203 L 44.16205,-19.69745 L 44.05334,-19.82235 L 43.94427,-19.94673 L 43.83484,-20.07060 L 43.72506,-20.19394 L 43.61491,-20.31676 L 43.50441,-20.43906 L 43.39356,-20.56084 L 43.28236,-20.68210 L 43.17082,-20.80283 L 43.05892,-20.92303 L 42.94669,-21.04271 L 42.83412,-21.16185 L 42.72121,-21.28047 L 42.60796,-21.39856 L 42.49438,-21.51612 L 42.38047,-21.63314 L 42.26623,-21.74963 L 42.15167,-21.86559 L 42.03678,-21.98101 L 41.92157,-22.09590 L 41.80605,-22.21025 L 41.69020,-22.32406 L 41.57405,-22.43733 L 41.45758,-22.55006 L 41.34080,-22.66226 L 41.22372,-22.77391 L 41.10633,-22.88501 L 40.98864,-22.99558 L 40.87065,-23.10560 L 40.75236,-23.21508 L 40.63378,-23.32401 L 40.51490,-23.43239 L 40.39574,-23.54023 L 40.27629,-23.64751 L 40.15655,-23.75425 L 40.03653,-23.86044 L 39.91623,-23.96608 L 39.79565,-24.07117 L 39.67479,-24.17570 L 39.55367,-24.27969 L 39.43227,-24.38312 L 39.31060,-24.48599 L 39.18867,-24.58831 L 39.06648,-24.69008 L 38.94402,-24.79128 L 38.82131,-24.89193 L 38.69834,-24.99203 L 38.57511,-25.09156 L 38.45164,-25.19054 L 38.32791,-25.28896 L 38.20394,-25.38681 L 38.07973,-25.48411 L 37.95527,-25.58084 L 37.83057,-25.67702 L 37.70564,-25.77263 L 37.58048,-25.86767 L 37.45508,-25.96215 L 37.32945,-26.05607 L 37.20360,-26.14943 L 37.07752,-26.24222 L 36.95122,-26.33444 L 36.82471,-26.42610 L 36.69797,-26.51719 L 36.57102,-26.60771 L 36.44386,-26.69766 L 36.31649,-26.78705 L 36.18891,-26.87587 L 36.06113,-26.96411 L 35.93314,-27.05179 L 35.80496,-27.13890 L 35.67657,-27.22544 L 35.54800,-27.31141 L 35.41923,-27.39681 L 35.29027,-27.48163 L 35.16112,-27.56588 L 35.03179,-27.64956 L 34.90228,-27.73267 L 34.77258,-27.81521 L 34.64271,-27.89717 L 34.51267,-27.97856 L 34.38245,-28.05937 L 34.25206,-28.13961 L 34.12150,-28.21928 L 33.99078,-28.29837 L 33.85990,-28.37688 L 33.72886,-28.45482 L 33.59765,-28.53219 L 33.46630,-28.60897 L 33.33479,-28.68519 L 33.20313,-28.76082 L 33.07132,-28.83588 L 32.93937,-28.91037 L 32.80727,-28.98427 L 32.67504,-29.05760 L 32.54266,-29.13035 L 32.41015,-29.20253 L 32.27751,-29.27413 L 32.14474,-29.34515 L 32.01183,-29.41559 L 31.87881,-29.48545 L 31.74566,-29.55474 L 31.61239,-29.62345 L 31.47900,-29.69158 L 31.34550,-29.75913 L 31.21188,-29.82611 L 31.07815,-29.89250 L 30.94431,-29.95832 L 30.81037,-30.02356 L 30.67632,-30.08822 L 30.54218,-30.15231 L 30.40793,-30.21581 L 30.27359,-30.27874 L 30.13916,-30.34109 L 30.00463,-30.40286 L 29.87002,-30.46405 L 29.73531,-30.52466 L 29.60053,-30.58470 L 29.46566,-30.64416 L 29.33072,-30.70304 L 29.19570,-30.76134 L 29.06060,-30.81906 L 28.92544,-30.87621 L 28.79020,-30.93278 L 28.65490,-30.98877 L 28.51953,-31.04419 L 28.38411,-31.09903 L 28.24862,-31.15329 L 28.11307,-31.20698 L 27.97748,-31.26009 L 27.84183,-31.31262 L 27.70613,-31.36458 L 27.57038,-31.41596 L 27.43459,-31.46676 L 27.29875,-31.51699 L 27.16288,-31.56665 L 27.02697,-31.61573 L 26.89102,-31.66424 L 26.75504,-31.71217 L 26.61903,-31.75953 L 26.48299,-31.80631 L 26.34693,-31.85252 L 26.21085,-31.89816 L 26.07474,-31.94323 L 25.93862,-31.98772 L 25.80248,-32.03165 L 25.66632,-32.07500 L 25.53016,-32.11778 L 25.39399,-32.15999 L 25.25781,-32.20162 L 25.12162,-32.24269 L 24.98544,-32.28319 L 24.84926,-32.32312 L 24.71308,-32.36248 L 24.57690,-32.40128 L 24.44073,-32.43950 L 24.30458,-32.47716 L 24.16844,-32.51425 L 24.03231,-32.55078 L 23.89620,-32.58674 L 23.76011,-32.62213 L 23.62404,-32.65696 L 23.48800,-32.69122 L 23.35198,-32.72493 L 23.21599,-32.75806 L 23.08004,-32.79064 L 22.94411,-32.82265 L 22.80823,-32.85410 L 22.67238,-32.88500 L 22.53657,-32.91533 L 22.40081,-32.94510 L 22.26509,-32.97431 L 22.12943,-33.00296 L 21.99381,-33.03106 L 21.85824,-33.05860 L 21.72273,-33.08558 L 21.58727,-33.11200 L 21.45188,-33.13788 L 21.31654,-33.16319 L 21.18128,-33.18795 L 21.04607,-33.21216 L 20.91094,-33.23582 L 20.77587,-33.25893 L 20.64088,-33.28148 L 20.50597,-33.30349 L 20.37113,-33.32494 L 20.23637,-33.34585 L 20.10170,-33.36620 L 19.96711,-33.38601 L 19.83260,-33.40528 L 19.69819,-33.42400 L 19.56386,-33.44217 L 19.42963,-33.45980 L 19.29549,-33.47689 L 19.16146,-33.49343 L 19.02752,-33.50944 L 18.89368,-33.52490 L 18.75995,-33.53982 L 18.62633,-33.55421 L 18.49281,-33.56805 L 18.35941,-33.58136 L 18.22612,-33.59413 L 18.09294,-33.60637 L 17.95989,-33.61807 L 17.82695,-33.62924 L 17.69413,-33.63988 L 17.56144,-33.64998 L 17.42888,-33.65956 L 17.29644,-33.66860 L 17.16413,-33.67712 L 17.03196,-33.68511 L 16.89992,-33.69257 L 16.76802,-33.69950 L 16.63626,-33.70591 L 16.50464,-33.71180 L 16.37316,-33.71717 L 16.24183,-33.72201 L 16.11064,-33.72633 L 15.97961,-33.73013 L 15.84873,-33.73342 L 15.71800,-33.73618 L 15.58743,-33.73843 L 15.45701,-33.74017 L 15.32676,-33.74139 L 15.19667,-33.74209 L 15.06674,-33.74229 L 14.93698,-33.74197 L 14.80739,-33.74115 L 14.67796,-33.73981 L 14.54871,-33.73797 L 14.41964,-33.73562 L 14.29074,-33.73277 L 14.16202,-33.72941 L 14.03348,-33.72555 L 13.90513,-33.72119 L 13.77696,-33.71633 L 13.64897,-33.71096 L 13.52118,-33.70510 L 13.39357,-33.69875 L 13.26616,-33.69189 L 13.13894,-33.68455 L 13.01192,-33.67671 L 12.88510,-33.66837 L 12.75848,-33.65955 L 12.63206,-33.65024 L 12.50584,-33.64044 L 12.37984,-33.63015 L 12.25404,-33.61938 L 12.12845,-33.60812 L 12.00307,-33.59638 L 11.87791,-33.58416 L 11.75296,-33.57145 L 11.62823,-33.55827 L 11.50372,-33.54461 L 11.37943,-33.53048 L 11.25537,-33.51587 L 11.13153,-33.50078 L 11.00792,-33.48523 L 10.88454,-33.46920 L 10.76138,-33.45270 L 10.66942,-33.52384 L 10.57712,-33.59470 L 10.48449,-33.66528 L 10.39153,-33.73557 L 10.29824,-33.80559 L 10.20461,-33.87533 L 10.11065,-33.94478 L 10.01637,-34.01394 L 9.92176,-34.08282 L 9.82682,-34.15141 L 9.73155,-34.21971 L 9.63596,-34.28772 L 9.54005,-34.35544 L 9.44381,-34.42286 L 9.34725,-34.48999 L 9.25037,-34.55682 L 9.15317,-34.62336 L 9.05564,-34.68959 L 8.95780,-34.75553 L 8.85965,-34.82117 L 8.76117,-34.88650 L 8.66239,-34.95153 L 8.56328,-35.01625 L 8.46387,-35.08067 L 8.36414,-35.14478 L 8.26410,-35.20858 L 8.16375,-35.27207 L 8.06309,-35.33525 L 7.96212,-35.39812 L 7.86085,-35.46067 L 7.75927,-35.52290 L 7.65738,-35.58482 L 7.55519,-35.64643 L 7.45270,-35.70771 L 7.34990,-35.76867 L 7.24681,-35.82931 L 7.14341,-35.88963 L 7.03972,-35.94963 L 6.93573,-36.00930 L 6.83144,-36.06864 L 6.72685,-36.12766 L 6.62197,-36.18634 L 6.51680,-36.24470 L 6.41134,-36.30272 L 6.30559,-36.36042 L 6.19954,-36.41777 L 6.09321,-36.47480 L 5.98659,-36.53148 L 5.87968,-36.58783 L 5.77248,-36.64385 L 5.66501,-36.69952 L 5.55725,-36.75485 L 5.44920,-36.80984 L 5.34088,-36.86448 L 5.23228,-36.91878 L 5.12339,-36.97274 L 5.01424,-37.02635 L 4.90480,-37.07961 L 4.79509,-37.13252 L 4.68510,-37.18508 L 4.57485,-37.23729 L 4.46432,-37.28915 L 4.35352,-37.34065 L 4.24245,-37.39180 L 4.13111,-37.44260 L 4.01951,-37.49303 L 3.90764,-37.54311 L 3.79551,-37.59283 L 3.68311,-37.64219 L 3.57045,-37.69118 L 3.45753,-37.73982 L 3.34435,-37.78809 L 3.23092,-37.83599 L 3.11722,-37.88353 L 3.00327,-37.93071 L 2.88907,-37.97751 L 2.77461,-38.02395 L 2.65990,-38.07001 L 2.54494,-38.11570 L 2.42973,-38.16103 L 2.31427,-38.20597 L 2.19856,-38.25055 L 2.08261,-38.29475 L 1.96642,-38.33857 L 1.84998,-38.38201 L 1.73329,-38.42507 L 1.61637,-38.46776 L 1.49921,-38.51006 L 1.38181,-38.55199 L 1.26418,-38.59353 L 1.14630,-38.63468 L 1.02820,-38.67545 L 0.90986,-38.71584 L 0.79129,-38.75584 L 0.67249,-38.79545 L 0.55346,-38.83467 L 0.43420,-38.87350 L 0.31472,-38.91194 L 0.19501,-38.94999 L 0.07508,-38.98764 L -0.04508,-39.02491 L -0.16545,-39.06177 L -0.28605,-39.09824 L -0.40686,-39.13432 L -0.52789,-39.17000 L -0.64913,-39.20527 L -0.77059,-39.24015 L -0.89227,-39.27463 L -1.01415,-39.30871 L -1.13624,-39.34238 L -1.25855,-39.37565 L -1.38106,-39.40852 L -1.50377,-39.44098 L -1.62669,-39.47304 L -1.74982,-39.50468 L -1.87314,-39.53592 L -1.99667,-39.56676 L -2.12039,-39.59718 L -2.24431,-39.62719 L -2.36843,-39.65679 L -2.49274,-39.68598 L -2.61725,-39.71475 L -2.74195,-39.74311 L -2.86684,-39.77105 L -2.99191,-39.79858 L -3.11718,-39.82570 L -3.24263,-39.85239 L -3.36827,-39.87867 L -3.49409,-39.90452 L -3.62009,-39.92996 L -3.74627,-39.95498 L -3.87263,-39.97957 L -3.99917,-40.00374 L -4.12588,-40.02749 L -4.25277,-40.05081 L -4.37983,-40.07371 L -4.50707,-40.09619 L -4.63447,-40.11823 L -4.76205,-40.13985 L -4.88979,-40.16104 L -5.01769,-40.18180 L -5.14576,-40.20213 L -5.27399,-40.22204 L -5.40239,-40.24151 L -5.53094,-40.26054 L -5.65966,-40.27915 L -5.78852,-40.29732 L -5.91755,-40.31506 L -6.04673,-40.33236 L -6.17606,-40.34922 L -6.30554,-40.36565 L -6.43517,-40.38165 L -6.56495,-40.39720 L -6.69488,-40.41231 L -6.82495,-40.42699 L -6.95516,-40.44123 L -7.08552,-40.45502 L -7.21601,-40.46837 L -7.34665,-40.48128 L -7.47742,-40.49375 L -7.60832,-40.50578 L -7.73937,-40.51736 L -7.87054,-40.52849 L -8.00184,-40.53918 L -8.13328,-40.54942 L -8.26484,-40.55922 L -8.39653,-40.56857 L -8.52834,-40.57747 L -8.66028,-40.58592 L -8.79233,-40.59392 L -8.92451,-40.60147 L -9.05681,-40.60858 L -9.18922,-40.61522 L -9.32175,-40.62142 L -9.45440,-40.62717 L -9.58715,-40.63246 L -9.72002,-40.63730 L -9.85299,-40.64168 L -9.98607,-40.64561 L -10.11926,-40.64908 L -10.25255,-40.65210 L -10.38595,-40.65466 L -10.51945,-40.65676 L -10.65304,-40.65841 L -10.78674,-40.65959 L -10.92053,-40.66032 L -11.05441,-40.66059 L -11.18839,-40.66040 L -11.32246,-40.65975 L -11.45662,-40.65863 L -11.59087,-40.65706 L -11.72520,-40.65502 L -11.85962,-40.65252 L -11.99413,-40.64956 L -12.12871,-40.64613 L -12.26338,-40.64224 L -12.39812,-40.63789 L -12.53294,-40.63307 L -12.66784,-40.62778 L -12.80281,-40.62203 L -12.93785,-40.61581 L -13.07297,-40.60913 L -13.20815,-40.60198 L -13.34340,-40.59436 L -13.47871,-40.58627 L -13.61409,-40.57771 L -13.74953,-40.56869 L -13.88503,-40.55919 L -14.02059,-40.54923 L -14.15621,-40.53879 L -14.29188,-40.52788 L -14.42761,-40.51651 L -14.56339,-40.50466 L -14.69922,-40.49234 L -14.83509,-40.47954 L -14.97102,-40.46628 L -15.10699,-40.45254 L -15.24301,-40.43832 L -15.37907,-40.42364 L -15.51517,-40.40848 L -15.65130,-40.39284 L -15.78748,-40.37673 L -15.92369,-40.36015 L -16.05994,-40.34309 L -16.19621,-40.32555 L -16.33252,-40.30754 L -16.46886,-40.28905 L -16.60522,-40.27009 L -16.74161,-40.25064 L -16.87803,-40.23072 L -17.01446,-40.21033 L -17.15092,-40.18945 L -17.28739,-40.16810 L -17.42389,-40.14626 L -17.56039,-40.12395 L -17.69691,-40.10116 L -17.83345,-40.07789 L -17.96999,-40.05414 L -18.10655,-40.02992 L -18.24311,-40.00521 L -18.37967,-39.98002 L -18.51624,-39.95435 L -18.65281,-39.92820 L -18.78938,-39.90157 L -18.92595,-39.87446 L -19.06251,-39.84686 L -19.19908,-39.81879 L -19.33563,-39.79023 L -19.47218,-39.76120 L -19.60871,-39.73168 L -19.74524,-39.70167 L -19.88175,-39.67119 L -20.01824,-39.64022 L -20.15472,-39.60877 L -20.29118,-39.57684 L -20.42762,-39.54442 L -20.56404,-39.51152 L -20.70043,-39.47814 L -20.83680,-39.44428 L -20.97314,-39.40993 L -21.10945,-39.37510 L -21.24573,-39.33978 L -21.38198,-39.30398 L -21.51819,-39.26770 L -21.65437,-39.23093 L -21.79051,-39.19368 L -21.92662,-39.15594 L -22.06268,-39.11772 L -22.19869,-39.07902 L -22.33467,-39.03983 L -22.47060,-39.00016 L -22.60647,-38.96000 L -22.74230,-38.91936 L -22.87808,-38.87823 L -23.01381,-38.83662 L -23.14948,-38.79453 L -23.28509,-38.75195 L -23.42065,-38.70888 L -23.55614,-38.66533 L -23.69157,-38.62130 L -23.82694,-38.57678 L -23.96225,-38.53178 L -24.09749,-38.48629 L -24.23265,-38.44032 L -24.36775,-38.39387 L -24.50278,-38.34693 L -24.63773,-38.29950 L -24.77261,-38.25159 L -24.90741,-38.20320 L -25.04213,-38.15432 L -25.17676,-38.10496 L -25.31132,-38.05512 L -25.44579,-38.00479 L -25.58018,-37.95398 L -25.71447,-37.90268 L -25.84868,-37.85090 L -25.98280,-37.79864 L -26.11682,-37.74589 L -26.25075,-37.69266 L -26.38458,-37.63895 L -26.51832,-37.58475 L -26.65195,-37.53007 L -26.78548,-37.47491 L -26.91891,-37.41926 L -27.05223,-37.36314 L -27.18545,-37.30653 L -27.31856,-37.24944 L -27.45155,-37.19186 L -27.58444,-37.13381 L -27.71721,-37.07527 L -27.84986,-37.01625 L -27.98240,-36.95675 L -28.11482,-36.89677 L -28.24712,-36.83631 L -28.37929,-36.77537 L -28.51134,-36.71395 L -28.64326,-36.65205 L -28.77506,-36.58967 L -28.90673,-36.52681 L -29.03826,-36.46346 L -29.16966,-36.39965 L -29.30093,-36.33535 L -29.43206,-36.27057 L -29.56305,-36.20532 L -29.69391,-36.13958 L -29.82462,-36.07337 L -29.95518,-36.00668 L -30.08561,-35.93952 L -30.21588,-35.87188 L -30.34601,-35.80376 L -30.47598,-35.73516 L -30.60581,-35.66609 L -30.73547,-35.59655 L -30.86499,-35.52652 L -30.99435,-35.45603 L -31.12354,-35.38506 L -31.25258,-35.31361 L -31.38145,-35.24169 L -31.51016,-35.16930 L -31.63871,-35.09644 L -31.76708,-35.02310 L -31.89529,-34.94929 L -32.02332,-34.87501 L -32.15119,-34.80025 L -32.27887,-34.72503 L -32.40639,-34.64934 L -32.53372,-34.57317 L -32.66087,-34.49654 L -32.78785,-34.41943 L -32.91463,-34.34186 L -33.04124,-34.26382 L -33.16766,-34.18531 L -33.29389,-34.10633 L -33.41992,-34.02688 L -33.54577,-33.94697 L -33.67143,-33.86659 L -33.79688,-33.78575 L -33.92215,-33.70444 L -34.04721,-33.62267 L -34.17207,-33.54043 L -34.29673,-33.45773 L -34.42119,-33.37456 L -34.54544,-33.29094 L -34.66949,-33.20685 L -34.79332,-33.12230 L -34.91695,-33.03728 L -35.04036,-32.95181 L -35.16356,-32.86588 L -35.28654,-32.77948 L -35.40931,-32.69263 L -35.53185,-32.60532 L -35.65418,-32.51755 L -35.77629,-32.42933 L -35.89817,-32.34065 L -36.01982,-32.25151 L -36.14125,-32.16191 L -36.26244,-32.07187 L -36.38341,-31.98136 L -36.50415,-31.89041 L -36.62465,-31.79900 L -36.74491,-31.70713 L -36.86494,-31.61482 L -36.98473,-31.52206 L -37.10427,-31.42884 L -37.22358,-31.33517 L -37.34264,-31.24106 L -37.46145,-31.14650 L -37.58002,-31.05148 L -37.69834,-30.95603 L -37.81640,-30.86012 L -37.93422,-30.76377 L -38.05178,-30.66697 L -38.16908,-30.56973 L -38.28613,-30.47205 L -38.40292,-30.37392 L -38.51945,-30.27535 L -38.63571,-30.17634 L -38.75171,-30.07689 L -38.86745,-29.97700 L -38.98291,-29.87666 L -39.09811,-29.77589 L -39.21304,-29.67468 L -39.32770,-29.57304 L -39.44208,-29.47096 L -39.55619,-29.36844 L -39.67002,-29.26548 L -39.78357,-29.16210 L -39.89684,-29.05828 L -40.00983,-28.95402 L -40.12253,-28.84934 L -40.23495,-28.74422 L -40.34708,-28.63868 L -40.45893,-28.53270 L -40.57048,-28.42630 L -40.68175,-28.31947 L -40.79272,-28.21221 L -40.90339,-28.10453 L -41.01377,-27.99642 L -41.12385,-27.88788 L -41.23363,-27.77893 L -41.34311,-27.66955 L -41.45228,-27.55975 L -41.56116,-27.44952 L -41.66972,-27.33888 L -41.77798,-27.22782 L -41.88593,-27.11634 L -41.99357,-27.00444 L -42.10089,-26.89213 L -42.20791,-26.77940 L -42.31460,-26.66626 L -42.42098,-26.55270 L -42.52704,-26.43873 L -42.63278,-26.32435 L -42.73820,-26.20956 L -42.84330,-26.09436 L -42.94807,-25.97875 L -43.05252,-25.86273 L -43.15663,-25.74630 L -43.26042,-25.62947 L -43.36388,-25.51223 L -43.46700,-25.39459 L -43.56979,-25.27655 L -43.67224,-25.15810 L -43.77436,-25.03925 L -43.87614,-24.92000 L -43.97758,-24.80036 L -44.07867,-24.68031 L -44.17943,-24.55987 L -44.27983,-24.43903 L -44.37990,-24.31780 L -44.47961,-24.19617 L -44.57898,-24.07415 L -44.67799,-23.95174 L -44.77665,-23.82893 L -44.87496,-23.70574 L -44.97291,-23.58216 L -45.07051,-23.45819 L -45.16775,-23.33383 L -45.26462,-23.20909 L -45.36114,-23.08396 L -45.45730,-22.95845 L -45.55309,-22.83256 L -45.64851,-22.70628 L -45.74357,-22.57963 L -45.83826,-22.45260 L -45.93258,-22.32519 L -46.02652,-22.19740 L -46.12010,-22.06924 L -46.21330,-21.94070 L -46.30612,-21.81179 L -46.39857,-21.68250 L -46.49064,-21.55285 L -46.58232,-21.42283 L -46.67363,-21.29243 L -46.76455,-21.16167 L -46.85509,-21.03054 L -46.94525,-20.89905 L -47.03501,-20.76720 L -47.12439,-20.63498 L -47.21338,-20.50240 L -47.30197,-20.36945 L -47.39017,-20.23615 L -47.47798,-20.10249 L -47.56540,-19.96848 L -47.65241,-19.83411 L -47.73903,-19.69938 L -47.82525,-19.56430 L -47.91106,-19.42887 L -47.99648,-19.29309 L -48.08149,-19.15696 L -48.16609,-19.02048 L -48.25029,-18.88365 L -48.33408,-18.74648 L -48.41746,-18.60896 L -48.50042,-18.47110 L -48.58298,-18.33290 L -48.66513,-18.19436 L -48.74685,-18.05548 L -48.82817,-17.91626 L -48.90906,-17.77670 "/>
<circle cx="0.00000" cy="0.00000" r="1" fill="red"/>
<line x1="0.00000" y1="0.00000" x2="10.00000" y2="0.00000" stroke="blue" stroke-width="0.5"/>
<line x1="0.00000" y1="0.00000" x2="0.00000" y2="-10.00000" stroke="blue" stroke-width="0.5"/>
</g>
</svg>
